<svg xmlns="http://www.w3.org/2000/svg" width="22" height="16" viewBox="0 0 22 16"><g><g><g><path fill="#c9c9c9" d="M21.969 4.962c0-1.873-.724-2.672-1.677-3.612.03 1.785-2.442 3.193-2.442 4.771 0 2.01 1.325 2.582 2.442 3.212.068-1.766 1.677-2.499 1.677-4.371z"/></g><g><path fill="#c9c9c9" d="M16.727 5.341c.045-1.177 1.118-1.665 1.118-2.914 0-1.248-.483-1.78-1.118-2.407.02 1.19-1.627 2.129-1.627 3.18 0 1.34.883 1.72 1.627 2.141z"/></g><g><path fill="#c9c9c9" d="M0 10.67h17.849v5.322H0z"/></g><g><path fill="#c9c9c9" d="M19.22 10.67h2.746v5.322H19.22z"/></g></g></g></svg>