<svg xmlns="http://www.w3.org/2000/svg" width="14" height="9" viewBox="0 0 14 9"><g><g transform="rotate(-360 7 4.5)"><path fill="#32aa58" d="M12.785 1.133a.398.398 0 0 0-.595 0L6.959 6.811 1.718 1.133a.398.398 0 0 0-.595 0 .483.483 0 0 0 0 .645l5.528 5.989a.395.395 0 0 0 .298.133.412.412 0 0 0 .297-.133l5.528-5.99a.473.473 0 0 0 .01-.644z"/><path fill="none" stroke="#32aa58" stroke-miterlimit="50" d="M12.785 1.133a.398.398 0 0 0-.595 0L6.959 6.811v0L1.718 1.133a.398.398 0 0 0-.595 0 .483.483 0 0 0 0 .645l5.528 5.989a.395.395 0 0 0 .298.133.412.412 0 0 0 .297-.133l5.528-5.99a.473.473 0 0 0 .01-.644z"/></g></g></svg>