<svg xmlns="http://www.w3.org/2000/svg" width="9" height="14" viewBox="0 0 9 14"><g><g transform="rotate(-90 4.5 7)"><path fill="#333" d="M10.285 3.633a.398.398 0 0 0-.595 0L4.459 9.311-.782 3.633a.398.398 0 0 0-.595 0 .483.483 0 0 0 0 .645l5.528 5.989a.395.395 0 0 0 .298.133.412.412 0 0 0 .297-.133l5.528-5.99a.473.473 0 0 0 .01-.644z"/><path fill="none" stroke="#333" stroke-miterlimit="50" stroke-width=".3" d="M10.285 3.633a.398.398 0 0 0-.595 0L4.459 9.311v0L-.782 3.633a.398.398 0 0 0-.595 0 .483.483 0 0 0 0 .645l5.528 5.989a.395.395 0 0 0 .298.133.412.412 0 0 0 .297-.133l5.528-5.99a.473.473 0 0 0 .01-.644z"/></g></g></svg>