<svg xmlns="http://www.w3.org/2000/svg" width="7" height="11" viewBox="0 0 7 11"><g><g transform="rotate(-90 3 5.5)"><path fill="#fff" d="M7.898 3.097a.371.371 0 0 0-.5 0L3.005 7.21l-4.402-4.114a.371.371 0 0 0-.5 0 .315.315 0 0 0 0 .467l4.643 4.34a.373.373 0 0 0 .5 0l4.643-4.34a.31.31 0 0 0 .009-.467z"/><path fill="none" stroke="#fff" stroke-miterlimit="50" stroke-width=".81" d="M7.898 3.097a.371.371 0 0 0-.5 0L3.005 7.21v0l-4.402-4.114a.371.371 0 0 0-.5 0 .315.315 0 0 0 0 .467l4.643 4.34a.373.373 0 0 0 .5 0l4.643-4.34a.31.31 0 0 0 .009-.467z"/></g></g></svg>