<svg xmlns="http://www.w3.org/2000/svg" width="81" height="81" viewBox="0 0 27 27"><g><g><g><g><path fill="#fff" d="M26.634 12.113L13.794.19.952 12.113a.448.448 0 0 0 .61.657l1.933-1.796V26.32h7.163v-8.06a3.134 3.134 0 1 1 6.268 0v8.06h7.163V10.973l1.934 1.796a.446.446 0 0 0 .633-.024.448.448 0 0 0-.023-.633z"/></g></g><g><g/><g><path fill="#21bbb5" d="M13.801 26.313a8.341 8.341 0 1 0 0-16.683 8.341 8.341 0 0 0 0 16.683z"/></g><g><path fill="#fff" d="M13.274 16.538H9.63a4.158 4.158 0 0 1 3.644-4.128zM9.63 17.59h8.341v2.081a4.165 4.165 0 0 1-4.17 4.161 4.165 4.165 0 0 1-4.171-4.161zm8.341-1.053h-3.643V12.41a4.158 4.158 0 0 1 3.643 4.128z"/></g></g></g></g></svg>