<svg xmlns="http://www.w3.org/2000/svg" width="20" height="19" viewBox="0 0 20 19"><defs><clipPath id="os1xa"><path fill="#fff" d="M19.225 8.776L9.989.2.753 8.776a.322.322 0 0 0 .438.473l1.39-1.292v11.039h5.153v-5.797a2.254 2.254 0 1 1 4.509 0v5.797h5.152V7.957l1.391 1.292a.32.32 0 0 0 .455-.017.322.322 0 0 0-.016-.456z"/></clipPath></defs><g><g><g><path fill="#fff" d="M19.225 8.776L9.989.2.753 8.776a.322.322 0 0 0 .438.473l1.39-1.292v11.039h5.153v-5.797a2.254 2.254 0 1 1 4.509 0v5.797h5.152V7.957l1.391 1.292a.32.32 0 0 0 .455-.017.322.322 0 0 0-.016-.456z"/><path fill="none" stroke="#656565" stroke-miterlimit="50" stroke-width="3" d="M19.225 8.776L9.989.2v0L.753 8.776a.322.322 0 0 0 .438.473l1.39-1.292v11.039h5.153v0-5.797a2.254 2.254 0 1 1 4.509 0v5.797h5.152v0-9.984 0-1.055 0l1.391 1.292a.32.32 0 0 0 .455-.017.322.322 0 0 0-.016-.456z" clip-path="url(&quot;#os1xa&quot;)"/></g></g><g><g/><g><path fill="#fff" d="M4.58 8h10.832v9.5H4.58z"/></g><g><path fill="#656565" d="M9.625 10.974H7C7 9.444 8.144 8.184 9.625 8zM7 11.724h6v1.5a3 3 0 1 1-6 0zm5.99-.75h-2.615V8a2.992 2.992 0 0 1 2.615 2.974z"/></g></g></g></svg>