<svg xmlns="http://www.w3.org/2000/svg" width="64" height="64" viewBox="0 0 64 64"><g><g><path fill="#32aa58" d="M32 60c15.464 0 28-12.536 28-28S47.464 4 32 4 4 16.536 4 32s12.536 28 28 28z"/><path fill="none" stroke="#fff" stroke-miterlimit="50" stroke-width="7" d="M32 60c15.464 0 28-12.536 28-28S47.464 4 32 4 4 16.536 4 32s12.536 28 28 28z"/></g><g><g><path fill="#fff" d="M25.9 31.485a7.554 7.554 0 0 0-2.037-.29 6.546 6.546 0 0 0-2.552.51c.641-2.287 2.183-6.233 5.254-6.677a.723.723 0 0 0 .595-.511l.67-2.337a.694.694 0 0 0-.092-.58.732.732 0 0 0-.51-.315 5.233 5.233 0 0 0-.687-.045c-3.686 0-7.336 3.745-8.876 9.108-.905 3.146-1.17 7.876 1.058 10.853 1.246 1.666 3.064 2.556 5.404 2.645h.028c2.887 0 5.447-1.892 6.226-4.602a6.11 6.11 0 0 0-.593-4.785c-.838-1.45-2.22-2.506-3.889-2.974z"/></g><g><path fill="#fff" d="M45.968 34.46c-.838-1.45-2.22-2.507-3.889-2.975a7.553 7.553 0 0 0-2.036-.29 6.548 6.548 0 0 0-2.553.51c.642-2.287 2.184-6.233 5.255-6.677a.724.724 0 0 0 .595-.511l.67-2.337a.694.694 0 0 0-.092-.58.73.73 0 0 0-.51-.315 5.227 5.227 0 0 0-.687-.045c-3.686 0-7.336 3.745-8.877 9.108-.904 3.146-1.169 7.876 1.059 10.854 1.246 1.666 3.064 2.556 5.404 2.644h.029c2.886 0 5.447-1.892 6.225-4.602a6.114 6.114 0 0 0-.593-4.785z"/></g></g></g></svg>