<svg xmlns="http://www.w3.org/2000/svg" width="65" height="65" viewBox="0 0 65 65"><g><g><g><path fill="none" stroke="#32aa58" stroke-miterlimit="50" stroke-width="1.46" d="M.73 52.99v7.351a3.658 3.658 0 0 0 3.658 3.657h6.809v0"/></g><g><path fill="none" stroke="#32aa58" stroke-miterlimit="50" stroke-width="1.46" d="M61.437 12.738v0-7.35a3.658 3.658 0 0 0-3.658-3.658H50.97v0"/></g><g><path fill="#32aa58" d="M52.619 58.286c-5.688 0-10.316-4.589-10.316-10.23 0-5.64 4.628-10.229 10.316-10.229 5.687 0 10.315 4.589 10.315 10.23 0 5.64-4.628 10.23-10.315 10.23zm0-22.506c-6.826 0-12.379 5.507-12.379 12.277s5.553 12.276 12.379 12.276c6.825 0 12.378-5.507 12.378-12.276 0-6.77-5.553-12.277-12.378-12.277z"/></g><g><path fill="#32aa58" d="M58.81 47.038h-5.157v-5.115c0-.566-.461-1.023-1.031-1.023-.57 0-1.032.457-1.032 1.023v6.138c0 .566.461 1.023 1.032 1.023h6.189c.57 0 1.031-.457 1.031-1.023 0-.565-.46-1.023-1.031-1.023z"/></g><g><path fill="#333" d="M40.242 31.688H33.02v-7.162h7.22zm-9.284 9.207h-7.221v-7.161h7.22zm0 9.207h-7.221v-7.16h7.22zm-9.284 0h-7.22v-7.16h7.22zm-7.22-16.368h7.22v7.161h-7.22zm0-9.208h7.22v7.161h-7.22zm9.283 0h7.22v7.161h-7.22zm18.568 0h7.23v7.161h-7.23zM12.39 22.48v29.669h20.63V33.734H51.59V22.48z"/></g><g><path fill="#333" d="M7.233 7.138h4.127v3.07c0 .565.461 1.023 1.032 1.023h7.222c.57 0 1.032-.458 1.032-1.024V7.138h22.698v3.07c0 .565.462 1.023 1.032 1.023h7.222c.571 0 1.032-.458 1.032-1.024V7.138h4.127v8.185H7.233zm6.19-4.092h5.157v6.128h-5.158zm31.977 0h5.158v6.128H45.4zm-6.19 54.222H7.234v-39.9h49.514v13.3c0 .566.461 1.024 1.032 1.024.57 0 1.031-.458 1.031-1.023V6.115c0-.565-.46-1.023-1.031-1.023H52.62V2.023c0-.566-.461-1.023-1.032-1.023h-7.22c-.57 0-1.032.457-1.032 1.023v3.07H20.643v-3.07c0-.566-.46-1.023-1.031-1.023H12.39c-.57 0-1.032.457-1.032 1.023v3.07H6.202c-.57 0-1.032.457-1.032 1.022v52.176c0 .566.461 1.023 1.032 1.023H39.21c.57 0 1.031-.457 1.031-1.023 0-.566-.46-1.023-1.031-1.023z"/></g></g></g></svg>