<svg xmlns="http://www.w3.org/2000/svg" width="61" height="70" viewBox="0 0 61 70"><g><g opacity=".8"><g opacity=".8"><path fill="#333" d="M13.516 62.141C4.02 55.107.004 42.953 3.472 31.743l.837 2.478c.07.21.21.39.396.513l5.02 3.304L8.58 39.17a.988.988 0 0 0-.295.703v2.983c0 .155.036.307.105.445l2.015 3.978c.14.274.4.47.705.53l4.23.834v9.13c0 .126.024.252.07.369l2.015 4.972c.11.272.336.482.617.574l3.022.994a1 1 0 0 0 1.32-.943v-4.474l3.625-2.685a.99.99 0 0 0 .403-.796v-2.572l3.734-3.686a.991.991 0 0 0 .274-.508l1.008-4.972a.995.995 0 0 0-.987-1.19h-3.459l-2.728-4.49a1.01 1.01 0 0 0-.863-.482h-6.427l-1.73-3.428a1.006 1.006 0 0 0-.74-.537.995.995 0 0 0-.874.279l-1.307 1.286v-1.578a.988.988 0 0 0-.295-.703l-1.72-1.697v-1.71l6.186-.872a1.02 1.02 0 0 0 .376-.132l5.036-2.983a1 1 0 0 0 .344-.34l2.83-4.657 2.668-.88a.99.99 0 0 0 .636-.628l1.007-2.983a.992.992 0 0 0-.79-1.293l-5.828-.96-1.025-.674a28.455 28.455 0 0 1 19.369.711l-1.84.907h-3.79a1.009 1.009 0 0 0-.907.55l-2.014 3.978a.989.989 0 0 0 .583 1.387l3.02.995c.182.06.377.068.563.021l3.744-.923 2.743.902c.04.013.08.024.121.031l5.036.995c.262.052.534 0 .756-.147l2.292-1.51a28.085 28.085 0 0 1 3.03 3.997l-4.955 1.63-5.365-.882-1.773-2.626a1.01 1.01 0 0 0-.832-.442h-6.043c-.267 0-.523.105-.712.291l-3.021 2.983a.987.987 0 0 0-.285.845l1.007 6.96c.05.345.28.638.604.773l7.05 2.984c.202.086.427.104.64.05l3.597-.888 2.198 1.45v3.446a.983.983 0 0 0 .1.444l3.928 7.746v3.743c0 .264.107.517.295.703l2.107 2.082C43.641 68.877 25.97 71.368 13.516 62.14zm3.027-15.287l-4.552-.9-1.692-3.332v-2.337l3.752-3.705 1.39 2.743c.17.337.519.55.9.55h6.48l2.728 4.49c.182.3.51.482.863.482h2.8l-.705 3.488-3.813 3.765a.989.989 0 0 0-.296.703v2.486l-3.625 2.685a.99.99 0 0 0-.403.795v3.592l-1.253-.41-1.768-4.367v-9.753a.998.998 0 0 0-.806-.975zm2.867-32.605l2.417 1.592c.119.078.253.13.394.153l4.88.803-.476 1.407-2.543.839a1.005 1.005 0 0 0-.545.43l-2.892 4.76-4.646 2.752-6.848.966a.999.999 0 0 0-.866.983v2.984c0 .263.106.516.295.703l1.719 1.697v1.709l-4.19-2.759-1.52-4.502C7.482 22.243 12.78 17.052 19.41 14.25zm30.584 5.59l-1.637 1.078-4.565-.902-2.962-.973a1.001 1.001 0 0 0-.562-.022l-3.745.924-1.641-.54L36.098 17h3.406c.157 0 .31-.036.45-.104l3.485-1.72a28.295 28.295 0 0 1 6.555 4.662zm4.162 35.065l-1.552-1.53v-3.565a.982.982 0 0 0-.1-.444l-3.93-7.743V37.88a.99.99 0 0 0-.448-.827l-3.023-1.988a1.019 1.019 0 0 0-.806-.138l-3.701.913-6.217-2.632-.856-5.913 2.37-2.338h5.09l1.712 2.54c.155.228.399.383.673.428l6.045.994c.162.027.328.014.484-.038l5.567-1.83a27.42 27.42 0 0 1-1.308 27.853zM30.45 10.04C18.358 10.038 7.43 17.155 2.67 28.13l-.376.124.146.433c-6.266 15.26 1.182 32.647 16.637 38.834a30.532 30.532 0 0 0 11.363 2.185c16.686.003 30.214-13.352 30.217-29.828C60.66 23.4 47.136 10.042 30.45 10.04z"/></g><g opacity=".8"><g opacity=".8"><path fill="#32aa58" d="M54.043 9.718l-4.456 7.176-4.573-7.107a4.953 4.953 0 0 1-.794-2.677c0-2.807 2.375-5.098 5.287-5.098 2.911 0 5.283 2.29 5.283 5.098 0 .921-.26 1.823-.747 2.608zM49.507 1c-3.494 0-6.337 2.741-6.337 6.11 0 1.139.327 2.25.946 3.214l5.03 7.816c.096.15.266.24.449.24h.004a.532.532 0 0 0 .449-.247l4.902-7.892a5.94 5.94 0 0 0 .893-3.13C55.843 3.74 53.001 1 49.507 1z"/><path fill="none" stroke="#32aa58" stroke-miterlimit="50" stroke-width=".7" d="M54.043 9.718l-4.456 7.176-4.573-7.107a4.953 4.953 0 0 1-.794-2.677c0-2.807 2.375-5.098 5.287-5.098 2.911 0 5.283 2.29 5.283 5.098 0 .921-.26 1.823-.747 2.608zM49.507 1c-3.494 0-6.337 2.741-6.337 6.11 0 1.139.327 2.25.946 3.214l5.03 7.816c.096.15.266.24.449.24h.004a.532.532 0 0 0 .449-.247l4.902-7.892a5.94 5.94 0 0 0 .893-3.13C55.843 3.74 53.001 1 49.507 1z"/></g><g opacity=".8"><path fill="#32aa58" d="M49.853 9.693c-1.168 0-2.114-.938-2.114-2.09 0-1.148.952-2.089 2.114-2.089s2.111.941 2.111 2.09a2.1 2.1 0 0 1-2.11 2.089zm.005-5.213c-1.747 0-3.168 1.403-3.168 3.129 0 1.714 1.398 3.128 3.168 3.128a3.143 3.143 0 0 0 3.169-3.128c0-1.726-1.422-3.129-3.169-3.129z"/><path fill="none" stroke="#32aa58" stroke-miterlimit="50" stroke-width=".7" d="M49.853 9.693c-1.168 0-2.114-.938-2.114-2.09 0-1.148.952-2.089 2.114-2.089s2.111.941 2.111 2.09a2.1 2.1 0 0 1-2.11 2.089zm.005-5.213c-1.747 0-3.168 1.403-3.168 3.129 0 1.714 1.398 3.128 3.168 3.128a3.143 3.143 0 0 0 3.169-3.128c0-1.726-1.422-3.129-3.169-3.129z"/></g></g></g></g></svg>