<svg xmlns="http://www.w3.org/2000/svg" width="67" height="67" viewBox="0 0 67 67"><g><g><g><path fill="#333" d="M26.8 64.777H13.4v-3.351c0-.19-.048-.377-.14-.543L3.216 42.804a7.85 7.85 0 0 1-.984-3.797v-21.14a2.233 2.233 0 1 1 4.467 0v16.03a4.245 4.245 0 0 0 .075 5.622l9.149 10.068 1.652-1.503-9.149-10.067a2.03 2.03 0 1 1 3.012-2.724l7.831 8.703c.1.1.213.186.335.257A14.311 14.311 0 0 1 26.8 56.65zm2.207-8.944a16.581 16.581 0 0 0-8.195-13.468l-7.714-8.57a4.17 4.17 0 0 0-4.165-1.28V17.867a4.467 4.467 0 0 0-8.933 0v21.135a10.082 10.082 0 0 0 1.265 4.883l9.902 17.82v4.178c0 .617.5 1.117 1.116 1.117h15.634c.616 0 1.116-.5 1.116-1.117v-10.05z"/></g><g><path fill="#333" d="M64.77 38.89a7.857 7.857 0 0 1-1.094 3.99l-9.939 18.007c-.09.165-.135.35-.134.539v3.35h-13.4v-8.125a14.336 14.336 0 0 1 7.252-12.425c.104-.06.198-.135.278-.224l7.831-8.711a2.031 2.031 0 1 1 3.015 2.724L49.427 48.08l1.653 1.506 9.149-10.066a4.245 4.245 0 0 0 .074-5.623v-16.03a2.233 2.233 0 1 1 4.467 0zM62.537 13.4c-2.467 0-4.467 2-4.467 4.467v14.648a4.326 4.326 0 0 0-1.108-.132 4.225 4.225 0 0 0-3.057 1.41l-7.712 8.569a16.546 16.546 0 0 0-8.196 13.471h-.027v10.05c0 .617.5 1.117 1.117 1.117H54.72c.617 0 1.117-.5 1.117-1.117v-4.18l9.778-17.723a10.058 10.058 0 0 0 1.388-5.095V17.867c0-2.467-2-4.467-4.466-4.467z"/></g><g><path fill="#32aa58" d="M35.736 39.083H34.68a10.067 10.067 0 0 1 9.992-8.933h1.056a10.067 10.067 0 0 1-9.992 8.933zm-4.468 0a10.067 10.067 0 0 1-9.992-8.933h1.055a10.067 10.067 0 0 1 9.992 8.933zm0-15.633a10.067 10.067 0 0 1-9.992-8.933h1.055a10.067 10.067 0 0 1 9.992 8.933zm-.01-15.623a6.71 6.71 0 0 1-6.6-5.594h1.023a6.71 6.71 0 0 1 6.6 5.594zm10.054-5.594h1.023a6.71 6.71 0 0 1-6.6 5.594H34.71a6.71 6.71 0 0 1 6.601-5.594zm3.36 12.284h1.056a10.067 10.067 0 0 1-9.992 8.933H34.68a10.067 10.067 0 0 1 9.992-8.933zm2.225 13.4h-2.234a12.272 12.272 0 0 0-10.05 5.248v-7.482h1.117c6.78-.008 12.275-5.502 12.283-12.283 0-.617-.5-1.117-1.116-1.117h-2.234a12.272 12.272 0 0 0-10.05 5.249V10.05h1.117a8.943 8.943 0 0 0 8.933-8.933C44.663.5 44.163 0 43.547 0h-2.234a8.933 8.933 0 0 0-7.816 4.619A8.933 8.933 0 0 0 25.68 0h-2.233c-.617 0-1.117.5-1.117 1.117a8.943 8.943 0 0 0 8.933 8.933h1.117v7.482a12.272 12.272 0 0 0-10.05-5.249h-2.233c-.617 0-1.117.5-1.117 1.117.008 6.78 5.503 12.275 12.283 12.283h1.117v7.482a12.272 12.272 0 0 0-10.05-5.248h-2.233c-.617 0-1.117.5-1.117 1.116.008 6.78 5.503 12.276 12.283 12.284h1.117v8.933h2.233v-8.933h1.117c6.78-.008 12.275-5.503 12.283-12.284 0-.616-.5-1.116-1.116-1.116z"/></g></g></g></svg>