<svg xmlns="http://www.w3.org/2000/svg" width="20" height="20" viewBox="0 0 20 20"><g><g><g><path fill="#c9c9c9" d="M15.217 3.415c0-.47-.183-.911-.515-1.243L13.045.515A1.797 1.797 0 0 0 11.79 0h-.101v3.516h3.527v-.101z"/></g><g><path fill="#c9c9c9" d="M2.93 7.031a.586.586 0 1 1 0-1.172h8.184a.586.586 0 1 1 0 1.172zm8.184 9.375a.586.586 0 1 1 0 1.172H7.598a.586.586 0 1 1 0-1.172zm-8.77-2.93c0-.323.262-.585.587-.585h5.848a.586.586 0 1 1 0 1.172H2.931a.586.586 0 0 1-.587-.586zm0-4.682c0-.327.262-.59.587-.59h5.848c.325 0 .587.263.587.59a.589.589 0 0 1-.587.591H2.931a.589.589 0 0 1-.587-.59zm.587 1.753h5.848a.586.586 0 1 1 0 1.172H2.931a.586.586 0 1 1 0-1.172zm7.77 1.544c.112-.34.308-.657.563-.914l3.967-3.951V4.688h-4.117a.57.57 0 0 1-.567-.586V0h-8.79A1.76 1.76 0 0 0 0 1.758v16.484C0 19.212.789 20 1.758 20h11.7c.969 0 1.773-.789 1.773-1.758V13.87l-.644.628a2.33 2.33 0 0 1-.91.562l-1.864.622-.284.016a1.47 1.47 0 0 1-1.189-.61 1.47 1.47 0 0 1-.199-1.32z"/></g><g><path fill="#c9c9c9" d="M11.765 12.61l-.51 1.53a.293.293 0 0 0 .371.37l1.529-.51z"/></g><g><path fill="#c9c9c9" d="M16.309 7.79l-3.859 3.859 1.664 1.664 3.859-3.859z"/></g><g><path fill="#c9c9c9" d="M19.654 6.106a1.173 1.173 0 0 0-.83-.326c-.322 0-.625.118-.833.326l-.851.852 1.664 1.664.852-.852a1.18 1.18 0 0 0-.002-1.664z"/></g></g></g></svg>