<svg xmlns="http://www.w3.org/2000/svg" width="16" height="13" viewBox="0 0 16 13"><g><g><g><path fill="#32aa58" d="M1.065 3.259v-1.89c0-.073.026-.136.079-.19a.254.254 0 0 1 .187-.08h13.304c.072 0 .134.027.187.08a.261.261 0 0 1 .079.19v1.89zm13.836 8.368a.262.262 0 0 1-.08.19.254.254 0 0 1-.186.08H1.33a.254.254 0 0 1-.187-.08.262.262 0 0 1-.079-.19V6.498h13.836v5.13zm.684-11.21a1.273 1.273 0 0 0-.94-.397H1.33c-.366 0-.68.132-.94.396C.131.681 0 .998 0 1.37v10.257c0 .371.13.689.391.953.26.265.574.397.94.397h13.314c.366 0 .68-.132.94-.397.26-.264.391-.582.391-.953V1.37c0-.372-.13-.69-.391-.954z"/></g><g><path fill="#32aa58" d="M2.13 9.74h2.13v1.08H2.13z"/></g><g><path fill="#32aa58" d="M5.33 9.74h3.195v1.08H5.33z"/></g></g></g></svg>