<svg xmlns="http://www.w3.org/2000/svg" width="16" height="16" viewBox="0 0 16 16"><g><g><g><path fill="#32aa58" d="M11.974 3.278c.616 0 1.114-.48 1.114-1.075V1.077C13.088.481 12.59 0 11.974 0c-.616 0-1.114.48-1.114 1.077v1.126c0 .596.498 1.075 1.114 1.075z"/></g><g><path fill="#32aa58" d="M1.242 14.434V5.695h13.585v8.74zM15.93 1.867h-2.243v.548c0 .904-.76 1.64-1.697 1.64-.938 0-1.696-.736-1.696-1.64v-.548H5.767v.548c0 .904-.76 1.64-1.697 1.64-.936 0-1.696-.736-1.696-1.64v-.548L.11 1.84v13.695h14.707l1.13-.003z"/></g><g><path fill="#32aa58" d="M4.053 3.278c.616 0 1.115-.48 1.115-1.075V1.077C5.168.48 4.67 0 4.053 0 3.438 0 2.94.48 2.94 1.077v1.126c0 .596.497 1.075 1.113 1.075z"/></g><g><path fill="#32aa58" d="M5.78 6.87h1.783v1.521H5.78z"/></g><g><path fill="#32aa58" d="M8.66 6.87h1.784v1.521H8.66z"/></g><g><path fill="#32aa58" d="M11.33 6.87h1.783v1.521H11.33z"/></g><g><path fill="#32aa58" d="M5.78 9.39h1.783v1.52H5.78z"/></g><g><path fill="#32aa58" d="M8.66 9.39h1.784v1.52H8.66z"/></g><g><path fill="#32aa58" d="M11.33 9.39h1.783v1.52H11.33z"/></g><g><path fill="#32aa58" d="M5.78 11.97h1.783v1.52H5.78z"/></g><g><path fill="#32aa58" d="M2.94 9.39h1.781v1.52H2.94z"/></g><g><path fill="#32aa58" d="M2.94 11.97h1.781v1.52H2.94z"/></g><g><path fill="#32aa58" d="M8.66 11.97h1.784v1.52H8.66z"/></g><g><path fill="#32aa58" d="M11.33 11.97h1.783v1.52H11.33z"/></g></g></g></svg>