<svg xmlns="http://www.w3.org/2000/svg" width="21" height="17" viewBox="0 0 21 17"><g><g><g><path fill="#fff" d="M20 11.316V16H1v-4.684h.73v3.947h17.54v-3.947zm-9.412-.126h-.176l.088.1zm-.6.61l-2.05-2.08.513-.52 1.687 1.712V1h.724v9.912L12.548 9.2l.513.52-2.561 2.6z"/><path fill="none" stroke="#fff" stroke-miterlimit="50" stroke-width="1.2" d="M20 11.316V16H1v-4.684h.73v3.947h17.54v-3.947zm-9.412-.126h-.176l.088.1zm-.6.61l-2.05-2.08.513-.52 1.687 1.712V1h.724v9.912L12.548 9.2l.513.52-2.561 2.6z"/></g></g></g></svg>