<svg xmlns="http://www.w3.org/2000/svg" width="13" height="9" viewBox="0 0 13 9"><g><g transform="rotate(-360 6.5 5)"><path fill="#333" d="M12.285 1.633a.398.398 0 0 0-.595 0L6.459 7.311 1.218 1.633a.398.398 0 0 0-.595 0 .483.483 0 0 0 0 .645l5.528 5.989a.395.395 0 0 0 .298.133.412.412 0 0 0 .297-.133l5.528-5.99a.473.473 0 0 0 .01-.644z"/><path fill="none" stroke="#333" stroke-miterlimit="50" stroke-width=".3" d="M12.285 1.633a.398.398 0 0 0-.595 0L6.459 7.311v0L1.218 1.633a.398.398 0 0 0-.595 0 .483.483 0 0 0 0 .645l5.528 5.989a.395.395 0 0 0 .298.133.412.412 0 0 0 .297-.133l5.528-5.99a.473.473 0 0 0 .01-.644z"/></g></g></svg>