<svg xmlns="http://www.w3.org/2000/svg" width="62" height="62" viewBox="0 0 31 31"><g><g><g><path fill="#e8e8e8" d="M1.41 15.5c0-7.782 6.308-14.09 14.09-14.09S29.59 7.717 29.59 15.5 23.283 29.59 15.5 29.59 1.41 23.283 1.41 15.5zm29.59 0C31 6.94 24.06 0 15.5 0 6.94 0 0 6.94 0 15.5 0 24.06 6.94 31 15.5 31 24.06 31 31 24.06 31 15.5z"/></g><g><path fill="#e8e8e8" d="M16.097 24.449v-8.947h2.952l.467-2.964h-3.419V11.05c0-.774.254-1.512 1.364-1.512h2.22V6.58H16.53c-2.65 0-3.372 1.744-3.372 4.162v1.794H11.34v2.966h1.818v8.947h2.94z"/></g></g></g></svg>