<svg xmlns="http://www.w3.org/2000/svg" width="60" height="72" viewBox="0 0 20 24"><g><g><g><path fill="#fff" d="M18.7 3.43h-.686v16.659a2.02 2.02 0 0 1-2.027 2.008H3.53v.617c0 .707.58 1.281 1.294 1.281H18.697c.714 0 1.294-.574 1.294-1.28V4.71c0-.707-.578-1.281-1.292-1.281z"/></g><g><path fill="#fff" d="M3.987 8.629h9.047c.338 0 .612.27.612.605a.609.609 0 0 1-.612.605H3.987a.609.609 0 0 1-.611-.605c0-.334.274-.605.611-.605zm9.047 4.492H3.987a.609.609 0 0 1-.611-.606c0-.334.274-.605.611-.605h9.047c.338 0 .612.271.612.605a.609.609 0 0 1-.612.606zm-4.533 3.09H3.986a.608.608 0 0 1-.61-.605c0-.335.273-.606.61-.606h4.517c.337 0 .61.271.61.606a.61.61 0 0 1-.612.605zm6.683 4.354c.715 0 1.294-.574 1.294-1.28V1.28c0-.707-.58-1.281-1.294-1.281H5.941v.424c.005.043.008.09.008.135v3.51c0 .995-.817 1.804-1.822 1.804H.583c-.037 0-.076-.003-.113-.005H.02v13.416c0 .707.58 1.281 1.294 1.281z"/></g><g><path fill="#fff" d="M.587 5.147H4.14A1.08 1.08 0 0 0 5.217 4.08V.56a.542.542 0 0 0-.93-.38L.2 4.227c-.342.339-.1.92.387.92z"/></g></g></g></svg>