<svg xmlns="http://www.w3.org/2000/svg" width="21" height="21" viewBox="0 0 21 21"><g><g><g><path fill="#c9c9c9" d="M10.465 16.528c-3.332 0-6.033-2.692-6.033-6.012 0-3.321 2.701-6.013 6.033-6.013 3.332 0 6.033 2.692 6.033 6.013a5.966 5.966 0 0 1-.853 3.082l-2.642-2.632c.191-.45.292-.937.292-1.44 0-.984-.384-1.91-1.083-2.606a3.68 3.68 0 0 0-2.615-1.08c-.33 0-.658.044-.975.13a.418.418 0 0 0-.29.291.406.406 0 0 0 .116.399s1.304 1.31 1.74 1.744c.046.046.046.154.04.193l-.004.03c-.044.477-.13 1.051-.2 1.272l-.027.026-.029.03c-.224.072-.809.157-1.296.2v-.002l-.022.005a.28.28 0 0 1-.221-.084L6.72 8.383a.427.427 0 0 0-.304-.135c-.18 0-.34.129-.39.314a3.69 3.69 0 0 0 3.57 4.65c.504 0 .993-.1 1.444-.29l2.67 2.661a6.018 6.018 0 0 1-3.246.946zm10.4-7.174c-.034-.293-.377-.514-.673-.514-.96 0-1.81-.56-2.167-1.428a2.314 2.314 0 0 1 .585-2.576.577.577 0 0 0 .064-.786 10.337 10.337 0 0 0-1.658-1.667.585.585 0 0 0-.796.064c-.623.688-1.744.943-2.61.584A2.314 2.314 0 0 1 12.197.768a.579.579 0 0 0-.514-.609C10.901.07 10.113.067 9.33.153A.581.581 0 0 0 8.81.75a2.318 2.318 0 0 1-1.434 2.223c-.855.348-1.968.094-2.59-.588a.585.585 0 0 0-.79-.066 10.382 10.382 0 0 0-1.693 1.667.578.578 0 0 0 .062.792c.729.657.964 1.701.586 2.6-.362.857-1.255 1.408-2.277 1.408a.569.569 0 0 0-.605.512c-.092.783-.093 1.58-.005 2.37.034.294.387.512.687.512.911-.023 1.786.539 2.153 1.428.366.888.13 1.923-.585 2.577a.577.577 0 0 0-.064.785 10.374 10.374 0 0 0 1.656 1.668c.24.192.588.165.796-.063.627-.69 1.747-.945 2.61-.584a2.31 2.31 0 0 1 1.415 2.261.58.58 0 0 0 .514.61 10.418 10.418 0 0 0 2.354.005.58.58 0 0 0 .518-.596 2.316 2.316 0 0 1 1.432-2.222c.862-.35 1.97-.094 2.592.587a.586.586 0 0 0 .79.065 10.396 10.396 0 0 0 1.693-1.666.577.577 0 0 0-.063-.793 2.302 2.302 0 0 1-.586-2.599 2.343 2.343 0 0 1 2.141-1.412l.13.003c.3.024.576-.206.612-.511.092-.783.093-1.58.005-2.37z"/></g></g></g></svg>