<svg xmlns="http://www.w3.org/2000/svg" width="20" height="19" viewBox="0 0 20 19"><g><g><g><path fill="#333" d="M19.225 8.776L9.989.2.753 8.776a.322.322 0 0 0 .438.473l1.39-1.292v11.039h5.153v-5.797a2.254 2.254 0 1 1 4.509 0v5.797h5.152V7.957l1.391 1.292a.32.32 0 0 0 .455-.017.322.322 0 0 0-.016-.456z"/></g></g><g/><g><path fill="#fff" d="M5 11a2 2 0 0 1 2-2h6a2 2 0 0 1 2 2v6a2 2 0 0 1-2 2H7a2 2 0 0 1-2-2z"/></g><g><path fill="#333" d="M9.625 12.974H7c0-1.53 1.144-2.79 2.625-2.974zM7 13.724h6v1.5a3 3 0 1 1-6 0zm5.99-.75h-2.615V10a2.992 2.992 0 0 1 2.615 2.974z"/></g></g></svg>