<svg height="480pt" viewBox="0 0 480 480" width="480pt" xmlns="http://www.w3.org/2000/svg"><path d="m96 192h288c4.417969 0 8-3.582031 8-8v-176c0-4.417969-3.582031-8-8-8h-288c-4.417969 0-8 3.582031-8 8v176c0 4.417969 3.582031 8 8 8zm8-176h272v160h-272zm0 0" fill="#c9c9c9"/><path d="m8 328h64c4.417969 0 8-3.582031 8-8v-312c0-4.417969-3.582031-8-8-8h-64c-4.417969 0-8 3.582031-8 8v312c0 4.417969 3.582031 8 8 8zm8-112v-200h48v296h-48zm0 0" fill="#c9c9c9"/><path d="m112 208c-4.417969 0-8 3.582031-8 8v96c0 4.417969 3.582031 8 8 8h256c4.417969 0 8-3.582031 8-8v-96c0-4.417969-3.582031-8-8-8zm248 96h-240v-80h240zm0 0" fill="#c9c9c9"/><path d="m224 256h32v16h-32zm0 0" fill="#c9c9c9"/><path d="m200 256h16v16h-16zm0 0" fill="#c9c9c9"/><path d="m264 256h16v16h-16zm0 0" fill="#c9c9c9"/><path d="m200 280h80v16h-80zm0 0" fill="#c9c9c9"/><path d="m200 232h80v16h-80zm0 0" fill="#c9c9c9"/><path d="m112 32v32h16v-24h24v-16h-32c-4.417969 0-8 3.582031-8 8zm0 0" fill="#c9c9c9"/><path d="m160 288c13.253906 0 24-10.746094 24-24s-10.746094-24-24-24-24 10.746094-24 24 10.746094 24 24 24zm0-32c4.417969 0 8 3.582031 8 8s-3.582031 8-8 8-8-3.582031-8-8 3.582031-8 8-8zm0 0" fill="#c9c9c9"/><path d="m320 288c13.253906 0 24-10.746094 24-24s-10.746094-24-24-24-24 10.746094-24 24 10.746094 24 24 24zm0-32c4.417969 0 8 3.582031 8 8s-3.582031 8-8 8-8-3.582031-8-8 3.582031-8 8-8zm0 0" fill="#c9c9c9"/><path d="m40 72c13.253906 0 24-10.746094 24-24s-10.746094-24-24-24-24 10.746094-24 24 10.746094 24 24 24zm0-32c4.417969 0 8 3.582031 8 8s-3.582031 8-8 8-8-3.582031-8-8 3.582031-8 8-8zm0 0" fill="#c9c9c9"/><path d="m40 128c13.253906 0 24-10.746094 24-24s-10.746094-24-24-24-24 10.746094-24 24 10.746094 24 24 24zm0-32c4.417969 0 8 3.582031 8 8s-3.582031 8-8 8-8-3.582031-8-8 3.582031-8 8-8zm0 0" fill="#c9c9c9"/><path d="m40 184c13.253906 0 24-10.746094 24-24s-10.746094-24-24-24-24 10.746094-24 24 10.746094 24 24 24zm0-32c4.417969 0 8 3.582031 8 8s-3.582031 8-8 8-8-3.582031-8-8 3.582031-8 8-8zm0 0" fill="#c9c9c9"/><path d="m40 240c13.253906 0 24-10.746094 24-24s-10.746094-24-24-24-24 10.746094-24 24 10.746094 24 24 24zm0-32c4.417969 0 8 3.582031 8 8s-3.582031 8-8 8-8-3.582031-8-8 3.582031-8 8-8zm0 0" fill="#c9c9c9"/><path d="m32 288h16v16h-16zm0 0" fill="#c9c9c9"/><path d="m472 0h-64c-4.417969 0-8 3.582031-8 8v312c0 4.417969 3.582031 8 8 8h64c4.417969 0 8-3.582031 8-8v-312c0-4.417969-3.582031-8-8-8zm-8 48v264h-48v-296h48zm0 0" fill="#c9c9c9"/><path d="m440 24c-13.253906 0-24 10.746094-24 24s10.746094 24 24 24 24-10.746094 24-24-10.746094-24-24-24zm0 32c-4.417969 0-8-3.582031-8-8s3.582031-8 8-8 8 3.582031 8 8-3.582031 8-8 8zm0 0" fill="#c9c9c9"/><path d="m440 80c-13.253906 0-24 10.746094-24 24s10.746094 24 24 24 24-10.746094 24-24-10.746094-24-24-24zm0 32c-4.417969 0-8-3.582031-8-8s3.582031-8 8-8 8 3.582031 8 8-3.582031 8-8 8zm0 0" fill="#c9c9c9"/><path d="m440 136c-13.253906 0-24 10.746094-24 24s10.746094 24 24 24 24-10.746094 24-24-10.746094-24-24-24zm0 32c-4.417969 0-8-3.582031-8-8s3.582031-8 8-8 8 3.582031 8 8-3.582031 8-8 8zm0 0" fill="#c9c9c9"/><path d="m440 192c-13.253906 0-24 10.746094-24 24s10.746094 24 24 24 24-10.746094 24-24-10.746094-24-24-24zm0 32c-4.417969 0-8-3.582031-8-8s3.582031-8 8-8 8 3.582031 8 8-3.582031 8-8 8zm0 0" fill="#c9c9c9"/><path d="m432 288h16v16h-16zm0 0" fill="#c9c9c9"/><path d="m432 256h16v16h-16zm0 0" fill="#c9c9c9"/><path d="m208 336h-200c-4.417969 0-8 3.582031-8 8v128c0 4.417969 3.582031 8 8 8h200c4.417969 0 8-3.582031 8-8v-128c0-4.417969-3.582031-8-8-8zm-8 128h-184v-112h184zm0 0" fill="#c9c9c9"/><path d="m72 456c26.507812 0 48-21.492188 48-48s-21.492188-48-48-48-48 21.492188-48 48c.027344 26.5 21.5 47.972656 48 48zm0-80c17.671875 0 32 14.328125 32 32s-14.328125 32-32 32-32-14.328125-32-32 14.328125-32 32-32zm0 0" fill="#c9c9c9"/><path d="m160 456c17.671875 0 32-14.328125 32-32s-14.328125-32-32-32-32 14.328125-32 32 14.328125 32 32 32zm0-48c8.835938 0 16 7.164062 16 16s-7.164062 16-16 16-16-7.164062-16-16 7.164062-16 16-16zm0 0" fill="#c9c9c9"/><path d="m176 360h16v16h-16zm0 0" fill="#c9c9c9"/><path d="m152 360h16v16h-16zm0 0" fill="#c9c9c9"/><path d="m128 360h16v16h-16zm0 0" fill="#c9c9c9"/><path d="m64 400h16v16h-16zm0 0" fill="#c9c9c9"/><path d="m472 336h-200c-4.417969 0-8 3.582031-8 8v128c0 4.417969 3.582031 8 8 8h200c4.417969 0 8-3.582031 8-8v-128c0-4.417969-3.582031-8-8-8zm-8 128h-184v-112h184zm0 0" fill="#c9c9c9"/><path d="m408 456c26.507812 0 48-21.492188 48-48s-21.492188-48-48-48-48 21.492188-48 48c.027344 26.5 21.5 47.972656 48 48zm0-80c17.671875 0 32 14.328125 32 32s-14.328125 32-32 32-32-14.328125-32-32 14.328125-32 32-32zm0 0" fill="#c9c9c9"/><path d="m320 456c17.671875 0 32-14.328125 32-32s-14.328125-32-32-32-32 14.328125-32 32 14.328125 32 32 32zm0-48c8.835938 0 16 7.164062 16 16s-7.164062 16-16 16-16-7.164062-16-16 7.164062-16 16-16zm0 0" fill="#c9c9c9"/><path d="m288 360h16v16h-16zm0 0" fill="#c9c9c9"/><path d="m312 360h16v16h-16zm0 0" fill="#c9c9c9"/><path d="m336 360h16v16h-16zm0 0" fill="#c9c9c9"/><path d="m400 400h16v16h-16zm0 0" fill="#c9c9c9"/><path d="m344 152h16v16h-16zm0 0" fill="#c9c9c9"/><path d="m320 152h16v16h-16zm0 0" fill="#c9c9c9"/><path d="m344 128h16v16h-16zm0 0" fill="#c9c9c9"/><path d="m32 256h16v16h-16zm0 0" fill="#c9c9c9"/></svg>