<svg xmlns="http://www.w3.org/2000/svg" width="66" height="66" viewBox="0 0 33 33"><g><g><g><path fill="#e8e8e8" d="M16.505 30.237c-7.572 0-13.732-6.16-13.732-13.732 0-7.572 6.16-13.732 13.732-13.732 7.572 0 13.732 6.16 13.732 13.732 0 7.572-6.16 13.732-13.732 13.732zM16.5 1C7.953 1 1 7.953 1 16.5S7.953 32 16.5 32 32 25.047 32 16.5 25.047 1 16.5 1z"/><path fill="none" stroke="#2d2d2d" stroke-miterlimit="50" stroke-width=".4" d="M16.505 30.237c-7.572 0-13.732-6.16-13.732-13.732 0-7.572 6.16-13.732 13.732-13.732 7.572 0 13.732 6.16 13.732 13.732 0 7.572-6.16 13.732-13.732 13.732zM16.5 1C7.953 1 1 7.953 1 16.5S7.953 32 16.5 32 32 25.047 32 16.5 25.047 1 16.5 1z"/></g><g><path fill="#e8e8e8" d="M22.23 22.16a.098.098 0 0 1-.098.097H10.868a.098.098 0 0 1-.098-.098V10.851c0-.054.044-.098.098-.098h11.264c.054 0 .098.044.098.098zM22.132 9H10.868C9.838 9 9 9.83 9 10.85v11.3c0 1.02.838 1.85 1.868 1.85h11.264c1.03 0 1.868-.83 1.868-1.85v-11.3C24 9.83 23.162 9 22.132 9z"/><path fill="none" stroke="#2d2d2d" stroke-miterlimit="50" stroke-width=".5" d="M22.23 22.16a.098.098 0 0 1-.098.097H10.868a.098.098 0 0 1-.098-.098V10.851c0-.054.044-.098.098-.098h11.264c.054 0 .098.044.098.098zM22.132 9H10.868C9.838 9 9 9.83 9 10.85v11.3c0 1.02.838 1.85 1.868 1.85h11.264c1.03 0 1.868-.83 1.868-1.85v-11.3C24 9.83 23.162 9 22.132 9z"/></g><g><path fill="#e8e8e8" d="M19 12h2v2h-2z"/></g><g><path fill="#e8e8e8" d="M16 19a2 2 0 1 0 0-4 2 2 0 0 0 0 4z"/></g><g><path fill="#e8e8e8" d="M19.612 17.343c0 1.666-1.393 3.015-3.112 3.015s-3.112-1.35-3.112-3.015L13.392 16H12v5h9v-5h-1.38z"/></g></g></g></svg>