<svg id="Capa_1" enable-background="new 0 0 546.55 546.55" height="512" viewBox="0 0 546.55 546.55" width="512" xmlns="http://www.w3.org/2000/svg"><path d="m375.753 137.511v-120.431c0-9.441-7.639-17.08-17.08-17.08h-170.796c-9.441 0-17.08 7.639-17.08 17.08v120.431c-41.229 31.209-68.319 80.19-68.319 135.764 0 94.172 76.625 170.797 170.797 170.797s170.797-76.625 170.797-170.797c0-55.574-27.09-104.555-68.319-135.764zm-170.797-103.352h136.637v82.797c-20.96-9.201-44.004-14.478-68.319-14.478-24.314 0-47.359 5.277-68.319 14.478v-82.797zm68.319 375.754c-75.341 0-136.637-61.297-136.637-136.638s61.297-136.637 136.637-136.637 136.638 61.297 136.638 136.637-61.297 136.638-136.638 136.638z" fill="#c9c9c9"/><path d="m256.195 478.231h34.159v68.319h-34.159z" fill="#c9c9c9"/><path id="path-1_69_" d="m478.231 256.195h68.319v34.159h-68.319z" transform="translate(14 7.5)" fill="#c9c9c9"/><path id="path-1_68_" d="m0 256.195h68.319v34.159h-68.319z" transform="translate(0 7.5)" fill="#c9c9c9"/><path id="path-2_9_" d="m-263.219 371.029h68.312v34.156h-68.312z" transform="matrix(.707 -.707 .707 .707 1.9885 13.3028)" fill="#c9c9c9"/><path id="path-2_8_" d="m210.907 361.128h68.312v34.156h-68.312z" transform="matrix(.707 -.707 .707 .707 11.8875 3.4042)" fill="#c9c9c9"/><path id="path-3_3_" d="m-4.127 586.062h34.156v68.312h-34.156z" transform="matrix(.707 -.707 .707 .707 11.8868 12.5965)" fill="#c9c9c9"/><path id="path-3_2_" d="m-14.027 111.936h34.156v68.312h-34.156z" transform="matrix(.707 -.707 .707 .707 1.9892 2.6965)" fill="#c9c9c9"/></svg>