<svg xmlns="http://www.w3.org/2000/svg" width="18" height="24" viewBox="0 0 18 24"><g><g><g><path fill="#fff" d="M9.02 12.973c2.241 0 4.059-1.807 4.059-4.037 0-2.229-1.818-4.036-4.06-4.036-2.242 0-4.059 1.807-4.059 4.036 0 2.23 1.817 4.037 4.06 4.037z"/></g><g><path fill="#fff" d="M9.018 2.765c3.428 0 6.207 2.763 6.207 6.172s-2.779 6.172-6.207 6.172-6.207-2.763-6.207-6.172 2.78-6.172 6.207-6.172zm-.005 21.222s8.983-10.121 8.983-15.055C17.996 4 13.974 0 9.013 0S.03 4 .03 8.932c0 4.933 8.983 15.055 8.983 15.055z"/></g></g></g></svg>