<svg xmlns="http://www.w3.org/2000/svg" width="15" height="15" viewBox="0 0 15 15"><g><g transform="matrix(-1 0 0 1 15 0)"><g><path fill="#656565" d="M7.459 13.088H1.757V1.894H7.46c.171 0 .31-.141.31-.315V.416A.313.313 0 0 0 7.459.1H.31C.14.1 0 .241 0 .416v14.15c0 .175.139.317.31.317h7.149c.17 0 .31-.142.31-.316v-1.163a.312.312 0 0 0-.31-.316z"/></g><g><path fill="#656565" d="M14.897 7.27l-4.163-4.251a.313.313 0 0 0-.437 0l-.988 1.009a.32.32 0 0 0 0 .446l1.88 1.92H3.05c-.17 0-.309.142-.309.316v1.565c0 .175.139.316.31.316h8.14l-1.88 1.92a.32.32 0 0 0 0 .447l.987 1.009a.306.306 0 0 0 .438 0l4.163-4.25a.32.32 0 0 0 0-.448z"/></g></g></g></svg>