<svg xmlns="http://www.w3.org/2000/svg" width="18" height="13" viewBox="0 0 18 13"><g><g><g><path fill="#c9c9c9" d="M5.962 5.754L.288 11.86A2.071 2.071 0 0 1 0 10.82V2.18c0-.423.132-.814.35-1.147zm10.947 6.885a2.287 2.287 0 0 1-1.185.332H2.246c-.436 0-.84-.124-1.184-.332l5.746-6.173 1.808 1.52a.575.575 0 0 0 .37.132.575.575 0 0 0 .369-.132l1.808-1.52zM1.176.292A2.28 2.28 0 0 1 2.246.02h13.478c.39 0 .75.103 1.071.272l-7.81 6.571zm16.795 10.529c0 .379-.111.73-.289 1.039l-5.674-6.105 5.613-4.722c.218.333.35.724.35 1.147z"/></g></g></g></svg>