<svg xmlns="http://www.w3.org/2000/svg" width="19" height="22" viewBox="0 0 19 22"><g><g><g><path fill="#c9c9c9" d="M18.903 18.556l-1.626-2.623a7.605 7.605 0 0 1-1.148-4.01V9.625c0-2.901-2-5.355-4.735-6.146V1.833C11.394.823 10.544 0 9.5 0 8.455 0 7.606.822 7.606 1.833V3.48C4.87 4.269 2.87 6.724 2.87 9.625v2.298a7.61 7.61 0 0 1-1.146 4.009L.098 18.555a.445.445 0 0 0-.006.462c.084.144.24.233.41.233h17.995c.17 0 .327-.089.412-.232a.447.447 0 0 0-.006-.462z"/></g><g><path fill="#c9c9c9" d="M6.52 20.17a3.32 3.32 0 0 0 2.982 1.833 3.32 3.32 0 0 0 2.982-1.833H6.52z"/></g></g></g></svg>