<svg xmlns="http://www.w3.org/2000/svg" width="56" height="58" viewBox="0 0 56 58"><g><g><g><path fill="#32aa58" d="M20.752 33.116h5.409c.996 0 1.803.82 1.803 1.831 0 1.012-.807 1.832-1.803 1.832h-4.507a.909.909 0 0 0-.902.915v1.952c1.363 2.698 4.103 4.458 7.212 4.458 1.5 0 2.966-.42 4.24-1.214l.102-.064a1.833 1.833 0 0 1-.737-1.47c0-.988.773-1.788 1.737-1.824l.004-.013a1.815 1.815 0 0 1-1.74-1.825c0-1.012.806-1.831 1.802-1.831-.996 0-1.803-.82-1.803-1.831 0-1.012.807-1.832 1.803-1.832h1.766l.034-.135-.184-.323a8.24 8.24 0 0 0-3.419-3.259v-7.27l-1.802-1.832 1.802-1.831v-2.747l-1.802-3.663H26.16l-1.803 3.663v13.68a8.247 8.247 0 0 0-3.916 4.289l-.032.379c.114-.011.225-.035.342-.035z"/></g><g><path fill="#333" d="M18.953 18.461h3.605V16.63H17.15v12.82h1.803z"/><path fill="none" stroke="#fff" stroke-miterlimit="50" stroke-width=".4" d="M18.953 18.461v0h3.605v0-1.831 0H17.15v12.82h1.803v0z"/></g><g><path fill="#333" d="M36.976 29.45h1.802V16.63H33.37v1.831h3.606z"/><path fill="none" stroke="#fff" stroke-miterlimit="50" stroke-width=".4" d="M36.976 29.45v0h1.802v0-12.82 0H33.37v1.831h3.606v0z"/></g><g><path fill="#333" d="M32.472 41.356c0-.506.404-.916.902-.916h3.605c.498 0 .902.41.902.916a.91.91 0 0 1-.902.916h-3.605a.909.909 0 0 1-.902-.916zm.902-8.24h3.605c.498 0 .902.41.902.915a.91.91 0 0 1-.902.915h-3.605a.909.909 0 0 1-.902-.915c0-.506.404-.916.902-.916zm-.902 4.577c0-.505.404-.915.902-.915h3.605c.498 0 .902.41.902.915a.91.91 0 0 1-.902.916h-3.605a.909.909 0 0 1-.902-.916zM50.5 21h-1.802v25.85H37.735c.093-.442.146-.896.146-1.36v-1.556a2.74 2.74 0 0 0 1.1-4.41 2.75 2.75 0 0 0 .703-1.83c0-.707-.272-1.345-.703-1.832a2.75 2.75 0 0 0 .703-1.831c0-1.515-1.214-2.747-2.705-2.747h-3.605c-1.491 0-2.705 1.232-2.705 2.747 0 .706.272 1.344.703 1.831a2.75 2.75 0 0 0-.703 1.831c0 .706.272 1.344.703 1.832a2.75 2.75 0 0 0-.703 1.831c0 1.514 1.214 2.747 2.705 2.747h2.704v1.387c0 1.224-.47 2.374-1.32 3.238l-1.384 1.406v4.957H21.655v-4.9l-2.617-3.324a4.635 4.635 0 0 1-.988-2.86v-7.23c0-1.514 1.213-2.746 2.704-2.746h5.408c.498 0 .902.41.902.915a.91.91 0 0 1-.902.916h-4.507c-.994 0-1.802.821-1.802 1.831v5.494h1.802v-5.494h4.507c1.491 0 2.705-1.232 2.705-2.747 0-1.514-1.214-2.747-2.705-2.747h-5.408c-2.485 0-4.507 2.054-4.507 4.579v7.23c0 .99.245 1.961.675 2.842h-9.69V21H5.43v27.681h12.727l1.696 2.153v6.088h15.323v-6.03l.856-.87a6.406 6.406 0 0 0 1.006-1.34H50.5z"/><path fill="none" stroke="#fff" stroke-miterlimit="50" stroke-width=".4" d="M32.472 41.356c0-.506.404-.916.902-.916h3.605c.498 0 .902.41.902.916a.91.91 0 0 1-.902.916h-3.605a.909.909 0 0 1-.902-.916zm.902-8.24h3.605c.498 0 .902.41.902.915a.91.91 0 0 1-.902.915h-3.605a.909.909 0 0 1-.902-.915c0-.506.404-.916.902-.916zm-.902 4.577c0-.505.404-.915.902-.915h3.605c.498 0 .902.41.902.915a.91.91 0 0 1-.902.916h-3.605a.909.909 0 0 1-.902-.916zM50.5 21h-1.802v25.85H37.735c.093-.442.146-.896.146-1.36v-1.556a2.74 2.74 0 0 0 1.1-4.41 2.75 2.75 0 0 0 .703-1.83c0-.707-.272-1.345-.703-1.832a2.75 2.75 0 0 0 .703-1.831c0-1.515-1.214-2.747-2.705-2.747h-3.605c-1.491 0-2.705 1.232-2.705 2.747 0 .706.272 1.344.703 1.831a2.75 2.75 0 0 0-.703 1.831c0 .706.272 1.344.703 1.832a2.75 2.75 0 0 0-.703 1.831c0 1.514 1.214 2.747 2.705 2.747h2.704v1.387c0 1.224-.47 2.374-1.32 3.238l-1.384 1.406v4.957H21.655v-4.9l-2.617-3.324a4.635 4.635 0 0 1-.988-2.86v-7.23c0-1.514 1.213-2.746 2.704-2.746h5.408c.498 0 .902.41.902.915a.91.91 0 0 1-.902.916h-4.507c-.994 0-1.802.821-1.802 1.831v5.494h1.802v-5.494h4.507c1.491 0 2.705-1.232 2.705-2.747 0-1.514-1.214-2.747-2.705-2.747h-5.408c-2.485 0-4.507 2.054-4.507 4.579v7.23c0 .99.245 1.961.675 2.842h-9.69V21H5.43v27.681h12.727l1.696 2.153v6.088h15.323v-6.03l.856-.87a6.406 6.406 0 0 0 1.006-1.34H50.5z"/></g><g><path fill="#32aa58" d="M52.196 23.044c-.687 0-1.36-.194-1.945-.56L27.964 8.55 5.677 22.484a3.667 3.667 0 0 1-1.946.56c-2.046 0-3.711-1.692-3.711-3.77v-.108a3.8 3.8 0 0 1 1.802-3.233L27.964 0l26.141 15.932a3.804 3.804 0 0 1 1.802 3.234v.108c0 2.078-1.665 3.77-3.71 3.77z"/></g></g></g></svg>