<svg xmlns="http://www.w3.org/2000/svg" width="14" height="21" viewBox="0 0 14 21"><g><g><g><path fill="#32aa58" d="M5.32 14.092c0-.916.752-1.658 1.68-1.658.928 0 1.68.742 1.68 1.658 0 .614-.338 1.149-.84 1.436v2.433H6.16v-2.433a1.653 1.653 0 0 1-.84-1.436zm7.28-4.697H3.36V5.25c0-1.98 1.633-3.592 3.64-3.592s3.64 1.611 3.64 3.592v.553c0 .457.376.829.84.829.464 0 .84-.372.84-.83V5.25C12.32 2.355 9.933 0 7 0 4.067 0 1.68 2.355 1.68 5.25v4.145H1.4c-.773 0-1.4.618-1.4 1.381v8.842A1.39 1.39 0 0 0 1.4 21h11.2c.773 0 1.4-.619 1.4-1.382v-8.842a1.39 1.39 0 0 0-1.4-1.381z"/></g></g></g></svg>