<svg xmlns="http://www.w3.org/2000/svg" width="15" height="13" viewBox="0 0 15 13"><g><g><g><path fill="#c9c9c9" d="M9.958 9.964a3.366 3.366 0 0 1-2.47 1.025A3.366 3.366 0 0 1 5.02 9.964a3.363 3.363 0 0 1-1.026-2.468c0-.962.342-1.785 1.026-2.468a3.366 3.366 0 0 1 2.469-1.026c.962 0 1.785.342 2.469 1.026a3.363 3.363 0 0 1 1.025 2.468c0 .961-.342 1.784-1.025 2.468zm4.434-7.373c-.39-.39-.86-.585-1.412-.585h-1.747l-.398-1.06a1.448 1.448 0 0 0-.542-.66A1.39 1.39 0 0 0 9.486.01H5.492a1.39 1.39 0 0 0-.808.277 1.449 1.449 0 0 0-.542.659l-.398 1.06H1.997c-.551 0-1.022.195-1.412.585-.39.39-.585.86-.585 1.411v6.987c0 .55.195 1.021.585 1.411.39.39.86.585 1.412.585H12.98c.552 0 1.022-.195 1.412-.585.39-.39.585-.86.585-1.411V4.002c0-.55-.195-1.021-.585-1.411z"/></g><g><path fill="#c9c9c9" d="M7.487 5.25c-.62 0-1.148.22-1.588.659-.44.44-.659.968-.659 1.587 0 .618.22 1.147.66 1.587.439.439.968.658 1.587.658.618 0 1.148-.22 1.587-.658.44-.44.66-.969.66-1.587 0-.619-.22-1.148-.66-1.587a2.164 2.164 0 0 0-1.587-.659z"/></g></g></g></svg>