<svg xmlns="http://www.w3.org/2000/svg" width="21" height="21" viewBox="0 0 21 21"><g><g><g><path fill="#32aa58" d="M11.32 5.987H9.68V9.68H5.988v1.64H9.68v3.692h1.64V11.32h3.692V9.679H11.32zM10.5 19.36c-4.885 0-8.86-3.974-8.86-8.859s3.975-8.86 8.86-8.86 8.86 3.975 8.86 8.86-3.975 8.86-8.86 8.86zm7.425-16.284A10.431 10.431 0 0 0 10.5 0a10.431 10.431 0 0 0-7.425 3.075A10.431 10.431 0 0 0 0 10.5c0 2.805 1.092 5.441 3.075 7.425A10.431 10.431 0 0 0 10.5 21c2.805 0 5.441-1.092 7.425-3.075A10.431 10.431 0 0 0 21 10.5c0-2.805-1.092-5.441-3.075-7.425z"/></g></g></g></svg>