<svg xmlns="http://www.w3.org/2000/svg" width="20" height="20" viewBox="0 0 20 20"><g><g><g><path fill="#333" d="M9.87 11.572a1.7 1.7 0 1 0 0-3.402 1.7 1.7 0 0 0 0 3.402z"/></g><g><path fill="#333" d="M9.868 13.984a4.116 4.116 0 1 1 .001-8.232 4.116 4.116 0 0 1-.001 8.232zm9.465-5.802l-2.377-.446a7.313 7.313 0 0 0-.568-1.376l1.375-2.01a.51.51 0 0 0-.059-.626L16.01 2.028a.51.51 0 0 0-.625-.059l-2.012 1.377a7.35 7.35 0 0 0-1.418-.58L11.51.401A.51.51 0 0 0 11.027 0H8.63a.511.511 0 0 0-.484.401L7.697 2.79a7.33 7.33 0 0 0-1.36.569L4.35 1.998a.51.51 0 0 0-.625.06L2.029 3.752a.51.51 0 0 0-.059.626l1.368 1.998a7.37 7.37 0 0 0-.56 1.36l-2.377.445A.511.511 0 0 0 0 8.666v2.398c0 .226.18.442.4.484l2.376.445c.145.485.336.95.572 1.388l-1.352 1.976a.51.51 0 0 0 .059.625l1.696 1.696c.16.16.439.185.625.06l1.975-1.353c.425.23.876.417 1.347.561l.448 2.39a.51.51 0 0 0 .483.4h2.4a.51.51 0 0 0 .483-.4l.444-2.366a7.43 7.43 0 0 0 1.403-.572l2 1.369a.51.51 0 0 0 .625-.06l1.696-1.694a.51.51 0 0 0 .059-.626l-1.361-1.989a7.38 7.38 0 0 0 .58-1.404l2.375-.445c.221-.042.4-.258.4-.484V8.667a.509.509 0 0 0-.4-.485z"/></g></g></g></svg>