<svg xmlns="http://www.w3.org/2000/svg" width="18" height="13" viewBox="0 0 18 13"><g><g><g><path fill="#32aa58" d="M17.97 4.034c0-1.521-.593-2.17-1.372-2.934.024 1.45-1.998 2.595-1.998 3.877 0 1.633 1.084 2.097 1.998 2.61.055-1.435 1.372-2.03 1.372-3.553z"/></g><g><path fill="#32aa58" d="M13.691 4.343c.037-.956.915-1.353.915-2.367S14.21.529 13.69.02c.016.966-1.331 1.73-1.331 2.584 0 1.089.722 1.398 1.331 1.74z"/></g><g><path fill="#32aa58" d="M0 8.67h14.604v4.324H0z"/></g><g><path fill="#32aa58" d="M15.73 8.67h2.247v4.324H15.73z"/></g></g></g></svg>