<svg xmlns="http://www.w3.org/2000/svg" width="19" height="19" viewBox="0 0 19 19"><g><g><g><path fill="#c9c9c9" d="M14.51 15.076h-2.227v-4.458c0-.615-.5-1.115-1.113-1.115-.614 0-1.113.5-1.113 1.115v4.458H7.83V7.273h2.227v.42c.583-.18.962-.42 1.67-.42 1.51.002 2.783 1.358 2.783 2.961zM6.717 6.16H4.49V3.934h2.227zm0 8.916H4.49V7.273h2.227zM16.217 0H2.783A2.787 2.787 0 0 0 0 2.783v13.434A2.787 2.787 0 0 0 2.783 19h13.434A2.787 2.787 0 0 0 19 16.217V2.783A2.787 2.787 0 0 0 16.217 0z"/></g></g></g></svg>