<svg xmlns="http://www.w3.org/2000/svg" width="11" height="13" viewBox="0 0 11 13"><g><g><path fill="#656565" d="M5.796.25C2.369.25.64 2.696.64 4.735c0 1.236.47 2.334 1.477 2.743.166.064.314.003.362-.18.033-.125.112-.443.147-.576.048-.18.03-.244-.104-.4-.29-.34-.476-.782-.476-1.407 0-1.815 1.364-3.439 3.552-3.439 1.934 0 3.001 1.177 3.001 2.752 0 2.069-.92 3.815-2.286 3.815-.756 0-1.321-.62-1.14-1.382.217-.908.637-1.89.637-2.548 0-.587-.318-1.078-.972-1.078-.772 0-1.391.795-1.391 1.859 0 .677.23 1.136.23 1.136l-.928 3.912c-.276 1.162-.041 2.585-.022 2.729.012.085.123.106.171.04.072-.092.99-1.22 1.303-2.349.089-.318.507-1.974.507-1.974.251.476.984.896 1.762.896 2.319 0 3.893-2.103 3.893-4.921C10.363 2.233 8.55.25 5.796.25z"/></g></g></svg>