<svg xmlns="http://www.w3.org/2000/svg" width="21" height="21" viewBox="0 0 21 21"><g><g><g><path fill="#c9c9c9" d="M9.19 12.464l3.416-1.967L9.19 8.53z"/></g><g><path fill="#c9c9c9" d="M16.79 13.659a1.643 1.643 0 0 1-1.156 1.155c-1.027.27-5.134.27-5.134.27s-4.097 0-5.134-.28a1.643 1.643 0 0 1-1.157-1.156c-.27-1.015-.27-3.153-.27-3.153s0-2.127.27-3.153a1.677 1.677 0 0 1 1.157-1.166c1.027-.27 5.134-.27 5.134-.27s4.107 0 5.134.281a1.643 1.643 0 0 1 1.157 1.155c.28 1.026.27 3.164.27 3.164s0 2.127-.27 3.153zM10.5 0C4.702 0 0 4.702 0 10.5S4.702 21 10.5 21 21 16.298 21 10.5 16.298 0 10.5 0z"/></g></g></g></svg>