<svg xmlns="http://www.w3.org/2000/svg" width="46" height="46" viewBox="0 0 46 46"><g><g><g><path fill="#32aa58" d="M23 16.88a2.3 2.3 0 1 0 0-4.6 2.3 2.3 0 0 0 0 4.6z"/></g><g><path fill="#32aa58" d="M23.003 18.403a3.836 3.836 0 0 1-3.836-3.828 3.836 3.836 0 0 1 7.672 0c0 2.111-1.72 3.828-3.836 3.828zm2.304 16.099a.768.768 0 0 1-.768.766h-3.072a.768.768 0 0 1-.768-.766v-3.067c0-.423.344-.766.768-.766h3.072c.424 0 .768.343.768.766zm-1.533 9.975h-1.542v-6.142h1.542zm3.829-39.106c0-.424.343-.766.766-.766h5.366c0-1.554-1.035-2.912-2.606-3.386l-.094-.029a27.692 27.692 0 0 0-16.066.001l-.244.074C13.28 1.7 12.27 3.074 12.27 4.604h5.366a.767.767 0 0 1 0 1.533H12.27V7.67h3.833a.767.767 0 0 1 0 1.533H12.27v1.533h3.833a.767.767 0 0 1 0 1.534H12.27v1.533h3.833a.767.767 0 0 1 0 1.533H12.27v1.533h3.833a.767.767 0 0 1 0 1.533H12.27v1.533h3.833a.767.767 0 0 1 0 1.534H12.27v1.533h5.366a.767.767 0 0 1 0 1.533H12.27c0 1.587 1.036 2.967 2.578 3.433.92.279 1.853.49 2.789.673v8.13a1.57 1.57 0 0 0 1.576 1.562h1.49v6.9c0 .423.344.766.767.766h3.066a.767.767 0 0 0 .767-.766v-6.9h1.49c.87 0 1.576-.7 1.576-1.562v-8.13a28.154 28.154 0 0 0 2.789-.673c1.542-.465 2.577-1.845 2.577-3.433H28.37a.767.767 0 0 1 0-1.533h5.366v-1.533h-3.833a.767.767 0 0 1 0-1.534h3.833v-1.533h-3.833a.767.767 0 0 1 0-1.533h3.833v-1.533h-3.833a.767.767 0 0 1 0-1.533h3.833V12.27h-3.833a.767.767 0 0 1 0-1.534h3.833V9.203h-3.833a.767.767 0 0 1 0-1.533h3.833V6.137H28.37a.767.767 0 0 1-.766-.766z"/></g><g><path fill="#32aa58" d="M22.23 32.2h1.533v1.533H22.23z"/></g><g><path fill="#32aa58" d="M37.339 9.425a.766.766 0 1 0-1.084 1.084c1.304 1.304 2.023 3.017 2.023 4.824s-.718 3.52-2.023 4.824a.766.766 0 1 0 1.084 1.084c1.594-1.594 2.472-3.692 2.472-5.908s-.878-4.314-2.472-5.908z"/></g><g><path fill="#32aa58" d="M41.914 6.341a.766.766 0 1 0-1.034 1.132c2.299 2.1 3.571 4.87 3.584 7.796.012 2.961-1.262 5.781-3.589 7.94a.768.768 0 0 0 1.044 1.125c2.644-2.456 4.092-5.677 4.079-9.071-.015-3.36-1.465-6.53-4.084-8.922z"/></g><g><path fill="#32aa58" d="M9.739 20.157c-2.705-2.705-2.705-6.943 0-9.648a.767.767 0 0 0-1.084-1.084c-3.313 3.313-3.313 8.503 0 11.816a.764.764 0 0 0 1.084 0c.3-.3.3-.784 0-1.084z"/></g><g><path fill="#32aa58" d="M1.534 15.269c.012-2.927 1.285-5.697 3.584-7.796A.766.766 0 1 0 4.083 6.34C1.463 8.734.013 11.902 0 15.263c-.014 3.393 1.434 6.615 4.078 9.07a.765.765 0 0 0 1.084-.04.768.768 0 0 0-.04-1.083c-2.325-2.161-3.6-4.98-3.588-7.941z"/></g></g></g></svg>