<svg xmlns="http://www.w3.org/2000/svg" width="21" height="14" viewBox="0 0 21 14"><g><g><g><path fill="#32aa58" d="M18.067 10.974a1.61 1.61 0 0 0-1.545-1.119 1.61 1.61 0 0 0-1.545 1.119h-.52v-4.9h2.536c.375 0 .72.2.901.519l1.156 2.046v2.335zm-.853.447c0 .37-.31.671-.692.671a.683.683 0 0 1-.692-.671c0-.37.31-.672.692-.672.381 0 .692.301.692.672zm-12.145 0c0 .37-.31.671-.692.671a.683.683 0 0 1-.691-.671c0-.37.31-.672.691-.672.382 0 .692.301.692.672zM1.92 1.934h11.617v9.04H5.923a1.61 1.61 0 0 0-1.546-1.119 1.61 1.61 0 0 0-1.545 1.119H1.92zm16.781 4.23a1.958 1.958 0 0 0-1.708-.983h-2.536V1.487a.454.454 0 0 0-.46-.447H1.46c-.254 0-.46.2-.46.447v9.934c0 .246.206.446.46.446h1.372a1.61 1.61 0 0 0 1.545 1.119 1.61 1.61 0 0 0 1.546-1.119h9.054a1.61 1.61 0 0 0 1.545 1.119 1.61 1.61 0 0 0 1.545-1.119h1.443c.254 0 .46-.2.46-.446V8.524a.436.436 0 0 0-.056-.215z"/><path fill="none" stroke="#32aa58" stroke-miterlimit="50" stroke-width=".5" d="M18.067 10.974a1.61 1.61 0 0 0-1.545-1.119 1.61 1.61 0 0 0-1.545 1.119h-.52v-4.9h2.536c.375 0 .72.2.901.519l1.156 2.046v2.335zm-.853.447c0 .37-.31.671-.692.671a.683.683 0 0 1-.692-.671c0-.37.31-.672.692-.672.381 0 .692.301.692.672zm-12.145 0c0 .37-.31.671-.692.671a.683.683 0 0 1-.691-.671c0-.37.31-.672.691-.672.382 0 .692.301.692.672zM1.92 1.934h11.617v9.04H5.923a1.61 1.61 0 0 0-1.546-1.119 1.61 1.61 0 0 0-1.545 1.119H1.92zm16.781 4.23a1.958 1.958 0 0 0-1.708-.983h-2.536V1.487a.454.454 0 0 0-.46-.447H1.46c-.254 0-.46.2-.46.447v9.934c0 .246.206.446.46.446h1.372a1.61 1.61 0 0 0 1.545 1.119 1.61 1.61 0 0 0 1.546-1.119h9.054a1.61 1.61 0 0 0 1.545 1.119 1.61 1.61 0 0 0 1.545-1.119h1.443c.254 0 .46-.2.46-.446V8.524a.436.436 0 0 0-.056-.215z"/></g><g><path fill="#32aa58" d="M6.761 4.45h3.498l-.661.543a.355.355 0 0 0 0 .571.549.549 0 0 0 .348.119.55.55 0 0 0 .347-.119l1.366-1.122a.492.492 0 0 0 0-.79l-1.366-1.124a.57.57 0 0 0-.695 0 .355.355 0 0 0 0 .571l.66.543H6.762c-.271 0-.491.181-.491.404 0 .223.22.404.491.404z"/></g><g><path fill="#32aa58" d="M5.595 8.844a.549.549 0 0 0 .348.119c.126 0 .251-.04.347-.119a.355.355 0 0 0 0-.57l-.66-.544h3.497c.271 0 .491-.18.491-.404 0-.223-.22-.403-.491-.403H5.63l.66-.544a.355.355 0 0 0 0-.57.57.57 0 0 0-.695 0L4.23 6.93a.51.51 0 0 0-.199.395c0 .15.07.29.2.396l1.365 1.122z"/></g></g></g></svg>