<svg xmlns="http://www.w3.org/2000/svg" width="19" height="16" viewBox="0 0 19 16"><g><g><g><path fill="#c9c9c9" d="M1.265 4.016V1.691c0-.09.031-.168.094-.234a.298.298 0 0 1 .222-.098h15.82c.085 0 .16.033.222.098a.327.327 0 0 1 .094.234v2.325zm16.452 10.31c0 .09-.032.167-.094.233a.297.297 0 0 1-.223.099H1.581a.297.297 0 0 1-.222-.099.329.329 0 0 1-.094-.234V8.003h16.452v6.322zm.79-13.808A1.486 1.486 0 0 0 17.391.03H1.58C1.146.03.774.193.464.518.154.843 0 1.234 0 1.69v12.624c0 .457.155.848.464 1.174.31.325.682.488 1.117.488h15.81c.434 0 .806-.163 1.116-.488.31-.326.464-.717.464-1.174V1.691c0-.457-.154-.848-.464-1.173z"/></g><g><path fill="#c9c9c9" d="M2.53 11.99h2.53v1.329H2.53z"/></g><g><path fill="#c9c9c9" d="M6.32 11.99h3.794v1.329H6.32z"/></g></g></g></svg>