<svg xmlns="http://www.w3.org/2000/svg" width="25" height="17" viewBox="0 0 25 17"><g><g><g><path fill="#c9c9c9" d="M8.98 13.902a.89.89 0 0 0-1.193-.309.829.829 0 0 0-.32 1.154l1.077 1.803a.893.893 0 0 0 1.193.31.83.83 0 0 0 .32-1.154z"/></g><g><path fill="#c9c9c9" d="M13.2 13.902a.89.89 0 0 0-1.193-.309.829.829 0 0 0-.32 1.154l1.077 1.803a.893.893 0 0 0 1.193.31.83.83 0 0 0 .32-1.154z"/></g><g><path fill="#c9c9c9" d="M17.42 13.902a.89.89 0 0 0-1.193-.309.829.829 0 0 0-.32 1.154l1.077 1.803a.893.893 0 0 0 1.193.31.83.83 0 0 0 .32-1.154z"/></g><g><path fill="#c9c9c9" d="M23.243 9.702c0 .408-.343.74-.764.74h-1.563l-.302-1.97a.864.864 0 0 0-.863-.721H5.239c-.432 0-.8.306-.863.72l-.302 1.97H2.511a.753.753 0 0 1-.764-.74V2.429c0-.408.343-.74.764-.74h19.968c.421 0 .764.332.764.74zm-17.402.74l.154-1.003h13.01l.154 1.002zM22.49 0H2.51C1.127 0 0 1.09 0 2.428v7.274c0 1.339 1.127 2.428 2.511 2.428H22.49c1.384 0 2.511-1.09 2.511-2.428V2.428C25 1.089 23.873 0 22.489 0z"/></g><g><path fill="#c9c9c9" d="M19.16 2.63c-.518 0-.94.408-.94.909 0 .501.422.909.94.909s.94-.408.94-.909c0-.501-.422-.909-.94-.909z"/></g><g><path fill="#c9c9c9" d="M19.16 4.99c-.518 0-.94.408-.94.909 0 .501.422.909.94.909s.94-.408.94-.909c0-.501-.422-.909-.94-.909z"/></g></g></g></svg>