<svg xmlns="http://www.w3.org/2000/svg" width="15" height="23" viewBox="0 0 15 23"><g><g><g><path fill="#c9c9c9" d="M6.836 7.508L2.939 3.54a14.175 14.175 0 0 0-1.771 2.715l-.078.164 5.746 5.85z"/></g><g><path fill="#c9c9c9" d="M8.164 14.182v4.334a7.38 7.38 0 0 1-1.323 0v-4.334L.554 7.78a10.177 10.177 0 0 0-.514 3.168c0 3.962 2.995 7.226 6.8 7.568v4.489h1.324v-4.489c3.806-.342 6.801-3.606 6.801-7.568 0-1.064-.173-2.124-.514-3.168z"/></g><g><path fill="#c9c9c9" d="M11.167 2.542A18.867 18.867 0 0 0 8.16 0v5.604z"/></g><g><path fill="#c9c9c9" d="M8.16 12.269l5.746-5.85c-.026-.055-.051-.11-.078-.164a14.174 14.174 0 0 0-1.771-2.715L8.16 7.508z"/></g><g><path fill="#c9c9c9" d="M6.837 0A18.867 18.867 0 0 0 3.83 2.542l3.007 3.062z"/></g></g></g></svg>