<svg xmlns="http://www.w3.org/2000/svg" width="19" height="19" viewBox="0 0 19 19"><g><g><g><path fill="#c9c9c9" d="M6.16 13.99c.41 0 .742.335.742.748a.745.745 0 0 1-.742.747.745.745 0 0 1-.743-.747c0-.413.333-.747.743-.747zm6.641 0c.41 0 .743.335.743.748a.745.745 0 0 1-.743.747.745.745 0 0 1-.742-.747c0-.413.333-.747.742-.747zm1.754.223c0-.675-.647-1.224-1.442-1.224H5.895c-.795 0-1.442.557-1.442 1.242v2.172H7.22l.618-.902a.743.743 0 0 1 .613-.323h2.134c.238 0 .461.114.601.307l.666.918h2.702zm-8.141-3.636l-.515.928h7.198l-.515-.93c-.25-.449-.787-.74-1.364-.74H7.779c-.577 0-1.113.291-1.365.742zm8.882 1.839c.474.494.734 1.124.734 1.797v4.045c0 .41-.333.742-.743.742h-1.962a.742.742 0 0 1-.742-.742v-.371H6.415v.37c0 .41-.332.743-.742.743H3.71a.742.742 0 0 1-.743-.742V14.23c0-.683.272-1.307.718-1.786a.753.753 0 0 1 .037-.078l1.394-2.513c.52-.928 1.54-1.503 2.662-1.503h3.439c1.123 0 2.143.576 2.661 1.503l1.405 2.536.012.026zm2.965-2.106c.413 0 .747.332.747.742v7.206c0 .41-.334.742-.747.742a.745.745 0 0 1-.747-.742v-7.206c0-.41.334-.742.747-.742zm-.747-2.967c0-.497-.246-.958-.659-1.234l-6.53-4.372a1.48 1.48 0 0 0-1.652 0l-6.53 4.372a1.482 1.482 0 0 0-.659 1.234v10.915a.742.742 0 0 1-1.484 0V7.343c0-.993.492-1.915 1.317-2.467L7.847.504a2.96 2.96 0 0 1 3.303 0l6.531 4.372a2.963 2.963 0 0 1 1.317 2.467.742.742 0 0 1-1.484 0z"/></g></g></g></svg>