<svg xmlns="http://www.w3.org/2000/svg" width="17" height="22" viewBox="0 0 17 22"><g><g><g><path fill="#c9c9c9" d="M6.46 8.245c1.183-.685 3.455-.125 4.695.307-.121.923-.25 1.978-.39 3.18-1.638-.383-3.973-.89-6.005-1.194.187-.653.636-1.676 1.7-2.293zm2.05 10.928V14.33h4.088c.092.028.176.03.25 0 1.017-5.205 4.831-11.76 4.035-13.309-.797-1.55-3.159-1.15-3.854-.04-.533.85-.974 1.41-1.636 5.879-1.409-.458-4.037-1.077-5.782-.065-1.692.981-2.315 2.614-2.54 3.535-1.187-.104-2.104-.074-2.443.192-1.368 1.083 0 3.808 0 3.808h1.773v1.52H.452v.908h2.37v-2.427h4.266v4.841c-2.847.161-5.231 1.275-6.265 2.808h13.953c-1.034-1.533-3.418-2.647-6.266-2.808z"/></g></g></g></svg>