<svg xmlns="http://www.w3.org/2000/svg" width="21" height="19" viewBox="0 0 21 19"><g><g><g><path fill="#c9c9c9" d="M18.633 15.41l-1.555-1.605a.667.667 0 0 0-.48-.205H4.392a.667.667 0 0 0-.48.205L2.357 15.41V12.2h16.276v3.21zM6.429 8.7c0-.386.304-.7.678-.7h6.786a.69.69 0 0 1 .678.7v2.1H6.43zm9.5 2.1V8.7c0-1.158-.914-2.1-2.036-2.1H7.107c-1.122 0-2.036.942-2.036 2.1v2.1H1.68a.69.69 0 0 0-.679.7v5.6a.7.7 0 0 0 .419.647c.252.11.545.049.74-.152L4.673 15h11.652l2.516 2.595a.668.668 0 0 0 .74.152A.7.7 0 0 0 20 17.1v-5.6a.69.69 0 0 0-.679-.7z"/><path fill="none" stroke="#c9c9c9" stroke-miterlimit="50" stroke-width=".5" d="M18.633 15.41l-1.555-1.605a.667.667 0 0 0-.48-.205H4.392a.667.667 0 0 0-.48.205L2.357 15.41V12.2h16.276v3.21zM6.429 8.7c0-.386.304-.7.678-.7h6.786a.69.69 0 0 1 .678.7v2.1H6.43zm9.5 2.1V8.7c0-1.158-.914-2.1-2.036-2.1H7.107c-1.122 0-2.036.942-2.036 2.1v2.1H1.68a.69.69 0 0 0-.679.7v5.6a.7.7 0 0 0 .419.647c.252.11.545.049.74-.152L4.673 15h11.652l2.516 2.595a.668.668 0 0 0 .74.152A.7.7 0 0 0 20 17.1v-5.6a.69.69 0 0 0-.679-.7z"/></g><g><path fill="#c9c9c9" d="M16.607 1H4.393C2.523 1 1 2.57 1 4.5v4.9h1.357V4.5c0-1.158.913-2.1 2.036-2.1h12.214c1.123 0 2.036.942 2.036 2.1v4.9H20V4.5C20 2.57 18.478 1 16.607 1z"/><path fill="none" stroke="#c9c9c9" stroke-miterlimit="50" stroke-width=".5" d="M16.607 1H4.393C2.523 1 1 2.57 1 4.5v4.9h1.357v0-4.9c0-1.158.913-2.1 2.036-2.1h12.214c1.123 0 2.036.942 2.036 2.1v4.9H20v0-4.9C20 2.57 18.478 1 16.607 1z"/></g></g></g></svg>