<svg xmlns="http://www.w3.org/2000/svg" width="20" height="17" viewBox="0 0 20 17"><g><g><g><path fill="#c9c9c9" d="M10.049 16.985a2.076 2.076 0 0 0 2.068-2.083c0-1.15-.926-2.082-2.068-2.082a2.076 2.076 0 0 0-2.069 2.082c0 1.15.926 2.083 2.069 2.083z"/></g><g><path fill="#c9c9c9" d="M11.51 13.44a2.072 2.072 0 0 1 0 2.928 2.039 2.039 0 0 1-2.91 0"/></g><g><path fill="#c9c9c9" d="M16.194 8.813a1 1 0 0 1-.711-.293 7.625 7.625 0 0 0-5.495-2.31c-2.069 0-4.04.813-5.495 2.277a1.01 1.01 0 0 1-1.422 0 1.026 1.026 0 0 1 0-1.431 9.776 9.776 0 0 1 6.95-2.896c2.618 0 5.074 1.041 6.949 2.896.388.39.388 1.04 0 1.431-.226.195-.517.326-.776.326z"/></g><g><path fill="#c9c9c9" d="M9.991 5.24c-2.618 0-5.075 1.041-6.95 2.896-.064.065-.096.13-.161.195.032.065.097.13.162.195a1.01 1.01 0 0 0 1.422 0C5.95 7.03 7.89 6.216 9.959 6.216c2.068 0 4.04.813 5.495 2.31a1 1 0 0 0 .71.293 1 1 0 0 0 .712-.293c.065-.065.097-.13.162-.195a.862.862 0 0 0-.162-.195c-1.81-1.887-4.267-2.896-6.885-2.896z"/></g><g><path fill="#c9c9c9" d="M18.974 5.789a1 1 0 0 1-.711-.293c-2.23-2.212-5.14-3.449-8.275-3.449-3.135 0-6.045 1.237-8.275 3.449a1.01 1.01 0 0 1-1.422 0 1.026 1.026 0 0 1 0-1.432A13.599 13.599 0 0 1 9.988.03c3.652 0 7.111 1.432 9.697 4.034.388.39.388 1.042 0 1.432a1 1 0 0 1-.711.293z"/></g><g><path fill="#c9c9c9" d="M9.986 1.11A13.6 13.6 0 0 0 .29 5.144c-.064.066-.097.098-.129.163.032.065.097.13.13.163a1.01 1.01 0 0 0 1.422 0c2.23-2.18 5.139-3.416 8.274-3.416 3.136 0 6.045 1.236 8.275 3.448a1 1 0 0 0 .711.293 1 1 0 0 0 .711-.293.57.57 0 0 0 .13-.162.709.709 0 0 0-.13-.163A13.498 13.498 0 0 0 9.986 1.11z"/></g><g><path fill="#c9c9c9" d="M13.706 11.909a1 1 0 0 1-.71-.293 4.188 4.188 0 0 0-3.007-1.236 4.326 4.326 0 0 0-3.006 1.236 1.01 1.01 0 0 1-1.422 0 1.026 1.026 0 0 1 0-1.431A6.164 6.164 0 0 1 9.989 8.33c1.681 0 3.233.65 4.428 1.855.388.39.388 1.04 0 1.431a1 1 0 0 1-.71.293z"/></g><g><path fill="#c9c9c9" d="M9.988 9.47c-1.681 0-3.233.65-4.429 1.855-.032.032-.097.097-.129.162.032.065.065.098.13.163a1.01 1.01 0 0 0 1.422 0 4.188 4.188 0 0 1 3.006-1.236c1.13 0 2.198.455 3.006 1.236a1 1 0 0 0 .71.293 1 1 0 0 0 .712-.293c.032-.033.097-.098.13-.163a.57.57 0 0 0-.13-.162A6.164 6.164 0 0 0 9.988 9.47z"/></g></g></g></svg>