<svg xmlns="http://www.w3.org/2000/svg" width="52" height="52" viewBox="0 0 52 52"><g><g><path fill="#c9c9c9" d="M0 4a4 4 0 0 1 4-4h44a4 4 0 0 1 4 4v44a4 4 0 0 1-4 4H4a4 4 0 0 1-4-4z"/></g><g><g><path fill="#fff" d="M26 29.727c1.59 0 2.88-1.271 2.88-2.839 0-1.567-1.29-2.838-2.88-2.838-1.59 0-2.88 1.27-2.88 2.838s1.29 2.839 2.88 2.839z"/></g><g><path fill="#fff" d="M26 31.326c-2.52 0-4.5-1.952-4.5-4.437 0-2.485 1.98-4.437 4.5-4.437s4.5 1.952 4.5 4.437c0 2.485-1.98 4.437-4.5 4.437zM23.3 18.02l-1.62 1.774H18.8c-.99 0-1.8.798-1.8 1.774V32.21c0 .976.81 1.774 1.8 1.774h14.4c.99 0 1.8-.798 1.8-1.774V21.568c0-.976-.81-1.774-1.8-1.774h-2.88L28.7 18.02z"/></g></g></g></svg>