<svg xmlns="http://www.w3.org/2000/svg" width="16" height="16" viewBox="0 0 16 16"><g><g><g><path fill="#32aa58" d="M5.187 11.782a.625.625 0 1 1 0 1.25.625.625 0 0 1 0-1.25zm5.593 0a.625.625 0 1 1 0 1.25.625.625 0 0 1 0-1.25zm1.469.187c0-.568-.545-1.031-1.213-1.031H4.963c-.67 0-1.213.47-1.213 1.046v1.829h2.329l.52-.76a.625.625 0 0 1 .515-.271H8.91c.2 0 .389.096.506.258l.56.773h2.274zM5.4 8.907l-.433.781h6.061l-.433-.783c-.212-.377-.663-.623-1.15-.623H6.552c-.486 0-.937.245-1.15.625zm7.48 1.548c.4.417.618.947.618 1.514v3.406c0 .345-.28.625-.625.625H11.22a.625.625 0 0 1-.625-.625v-.312H5.402v.312c0 .345-.28.625-.625.625H3.125a.625.625 0 0 1-.625-.625v-3.391c0-.575.228-1.1.604-1.504a.635.635 0 0 1 .032-.066l1.173-2.116c.438-.781 1.297-1.266 2.242-1.266h2.896c.946 0 1.804.485 2.24 1.266l1.183 2.135.011.022zm2.492-1.773c.346 0 .625.28.625.625v6.068a.625.625 0 0 1-1.25 0V9.307c0-.345.28-.625.625-.625zm-.624-2.499c0-.418-.208-.806-.555-1.038l-5.5-3.682a1.246 1.246 0 0 0-1.39 0l-5.5 3.682c-.347.232-.554.62-.554 1.038v9.192a.625.625 0 0 1-1.25 0V6.183c0-.836.415-1.612 1.109-2.077l5.5-3.682a2.492 2.492 0 0 1 2.78 0l5.5 3.682A2.495 2.495 0 0 1 16 6.183a.625.625 0 0 1-1.25 0z"/></g></g></g></svg>