<svg xmlns="http://www.w3.org/2000/svg" width="29" height="29" viewBox="0 0 29 29"><g><g><g><path fill="#32aa58" d="M14.5 0C22.508 0 29 6.492 29 14.5S22.508 29 14.5 29 0 22.508 0 14.5 6.492 0 14.5 0zm0 2C7.607 2 2 7.607 2 14.5S7.607 27 14.5 27 27 21.393 27 14.5 21.393 2 14.5 2z"/></g><g><g><path fill="#32aa58" d="M14.5 2.94a.5.5 0 0 0-.5.5v.5a.5.5 0 1 0 1 0v-.5a.5.5 0 0 0-.5-.5z"/></g><g><path fill="#32aa58" d="M14.5 24.44a.5.5 0 0 0-.5.5v.5a.5.5 0 1 0 1 0v-.5a.5.5 0 0 0-.5-.5z"/></g><g><path fill="#32aa58" d="M25.5 13.94H25a.5.5 0 1 0 0 1h.5a.5.5 0 1 0 0-1z"/></g><g><path fill="#32aa58" d="M4 13.94h-.5a.5.5 0 1 0 0 1H4a.5.5 0 1 0 0-1z"/></g><g><path fill="#32aa58" d="M21.92 6.307l-.353.353a.5.5 0 1 0 .707.707l.353-.353a.5.5 0 1 0-.707-.707z"/></g><g><path fill="#32aa58" d="M6.72 21.506l-.353.354a.5.5 0 1 0 .707.707l.353-.354a.5.5 0 1 0-.707-.707z"/></g><g><path fill="#32aa58" d="M22.274 21.507a.5.5 0 1 0-.707.707l.353.353a.499.499 0 0 0 .707 0 .5.5 0 0 0 0-.707z"/></g><g><path fill="#32aa58" d="M7.074 6.307a.5.5 0 1 0-.707.707l.353.353a.499.499 0 0 0 .707 0 .5.5 0 0 0 0-.707z"/></g></g><g><path fill="none" stroke="#32aa58" stroke-linecap="round" stroke-linejoin="round" stroke-miterlimit="50" d="M13 14.44H9"/></g><g><path fill="none" stroke="#32aa58" stroke-linecap="round" stroke-linejoin="round" stroke-miterlimit="50" d="M14.5 12.94v-5.5"/></g><g><path fill="none" stroke="#32aa58" stroke-linecap="round" stroke-linejoin="round" stroke-miterlimit="50" d="M14.5 15.94a1.5 1.5 0 1 0 0-3 1.5 1.5 0 0 0 0 3z"/></g></g></g></svg>