<svg xmlns="http://www.w3.org/2000/svg" width="19" height="18" viewBox="0 0 19 18"><g><g><g><path fill="#32aa58" d="M17.897 11.368c0 .85-.673 1.54-1.5 1.54H7.755l-4.037 2.886v-2.886H2.613c-.827 0-1.5-.69-1.5-1.54V2.704c0-.85.673-1.54 1.5-1.54h13.784c.827 0 1.5.69 1.5 1.54zM16.387.02H2.613C1.172.02 0 1.224 0 2.704v8.664c0 1.477 1.167 2.68 2.603 2.684v3.932L8.1 14.052h8.287c1.44 0 2.612-1.204 2.612-2.684V2.704C19 1.224 17.828.02 16.388.02z"/></g><g><path fill="#32aa58" d="M5.09 4.06h8.83v1.144H5.09z"/></g><g><path fill="#32aa58" d="M5.09 6.5h8.83v1.144H5.09z"/></g><g><path fill="#32aa58" d="M5.09 8.94h8.83v1.144H5.09z"/></g></g></g></svg>