<svg xmlns="http://www.w3.org/2000/svg" width="17" height="16" viewBox="0 0 17 16"><g><g><g><path fill="#656565" d="M15.121 9.846c0 .66-.53 1.198-1.183 1.198H7.12L3.934 13.29v-2.245h-.872A1.192 1.192 0 0 1 1.88 9.846V3.108c0-.66.53-1.198 1.183-1.198h10.876c.652 0 1.183.537 1.183 1.198zM13.938 1.02H3.062C1.925 1.02 1 1.956 1 3.108v6.738c0 1.149.921 2.084 2.055 2.088v3.058l4.34-3.058h6.543c1.137 0 2.062-.937 2.062-2.088V3.108c0-1.152-.925-2.088-2.062-2.088z"/><path fill="none" stroke="#656565" stroke-miterlimit="50" stroke-width=".6" d="M15.121 9.846c0 .66-.53 1.198-1.183 1.198H7.12L3.934 13.29v-2.245h-.872A1.192 1.192 0 0 1 1.88 9.846V3.108c0-.66.53-1.198 1.183-1.198h10.876c.652 0 1.183.537 1.183 1.198zM13.938 1.02H3.062C1.925 1.02 1 1.956 1 3.108v6.738c0 1.149.921 2.084 2.055 2.088v3.058l4.34-3.058h6.543c1.137 0 2.062-.937 2.062-2.088V3.108c0-1.152-.925-2.088-2.062-2.088z"/></g><g><path fill="#656565" d="M5.58 4.015h6v.89h-6z"/><path fill="none" stroke="#656565" stroke-miterlimit="50" stroke-width=".5" d="M5.58 4.015v0h6v.89h-6v0z"/></g><g><path fill="#656565" d="M5.58 5.96h6v1h-6z"/><path fill="none" stroke="#656565" stroke-miterlimit="50" stroke-width=".5" d="M5.58 5.96v0h6v1h-6v0z"/></g><g><path fill="#656565" d="M5.58 8.015h6v.89h-6z"/><path fill="none" stroke="#656565" stroke-miterlimit="50" stroke-width=".5" d="M5.58 8.015v0h6v.89h-6v0z"/></g></g></g></svg>