<svg xmlns="http://www.w3.org/2000/svg" width="66" height="65" viewBox="0 0 66 65"><g><g><g><path fill="#32aa58" d="M8.844 61.866a1.259 1.259 0 0 0-.884-.366 1.254 1.254 0 0 0-1.25 1.25A1.254 1.254 0 0 0 7.96 64c.329 0 .651-.134.884-.366a1.26 1.26 0 0 0 .366-.884 1.26 1.26 0 0 0-.366-.884z"/></g><g><path fill="#32aa58" d="M47.634 53.036a1.258 1.258 0 0 0-.884-.366c-.329 0-.651.134-.884.366a1.26 1.26 0 0 0-.366.884c0 .33.134.651.366.884.233.232.555.366.884.366.329 0 .651-.134.884-.366.232-.233.366-.554.366-.884a1.26 1.26 0 0 0-.366-.884z"/></g><g><path fill="#333" d="M62.49 38.25H51.995v-4.625c0-.145-.024-.284-.07-.413a7.864 7.864 0 0 0 6.169-4.122 1.25 1.25 0 0 0-2.203-1.18 5.37 5.37 0 0 1-4.74 2.84h-7.277a1.251 1.251 0 0 1 0-2.5h6.872c.69 0 1.25-.56 1.25-1.25a5.255 5.255 0 0 1 5.247-5.25A5.255 5.255 0 0 1 62.49 27zM49.5 33.625v4.625h-2.423c.427-.736.673-1.59.673-2.5 0-.91-.246-1.764-.673-2.5h2.48a1.247 1.247 0 0 0-.057.375zm-6.75 4.625h-19.5a2.503 2.503 0 0 1-2.5-2.5c0-1.379 1.121-2.5 2.5-2.5h19.5c1.379 0 2.5 1.121 2.5 2.5s-1.121 2.5-2.5 2.5zM40.398 61.5H36.75V40.75h4.521a5.998 5.998 0 0 0-1.146 3.531v15.782c0 .507.098.991.273 1.437zm-6.148 0h-2.5V40.75h2.5zm-5 0h-3.648c.176-.446.273-.93.273-1.438v-15.78a5.997 5.997 0 0 0-1.146-3.532h4.521zm-5.875-1.438a1.44 1.44 0 0 1-1.438 1.438 1.44 1.44 0 0 1-1.437-1.438V46.876c0-.69-.56-1.25-1.25-1.25H8.104A4.61 4.61 0 0 1 3.5 41.021v-.271h16.344a3.535 3.535 0 0 1 3.531 3.531zM18.923 38.25H16.5v-4.625c0-.13-.02-.257-.057-.375h2.48a4.968 4.968 0 0 0-.673 2.5c0 .91.246 1.764.673 2.5zM3.5 27a5.256 5.256 0 0 1 5.25-5.25A5.256 5.256 0 0 1 14 27c0 .69.56 1.25 1.25 1.25h6.875c.69 0 1.25.56 1.25 1.25s-.56 1.25-1.25 1.25h-7.28a5.373 5.373 0 0 1-4.743-2.84 1.25 1.25 0 1 0-2.204 1.18 7.868 7.868 0 0 0 6.172 4.122c-.045.13-.07.268-.07.413v4.625H3.5zM6 15.5a2.753 2.753 0 0 1 2.75-2.75 2.753 2.753 0 0 1 2.75 2.75v1a2.753 2.753 0 0 1-2.75 2.75A2.753 2.753 0 0 1 6 16.5zm48.5 0a2.753 2.753 0 0 1 2.75-2.75A2.753 2.753 0 0 1 60 15.5v1a2.753 2.753 0 0 1-2.75 2.75 2.753 2.753 0 0 1-2.75-2.75zm6.468 4.703A5.234 5.234 0 0 0 62.5 16.5v-1a5.256 5.256 0 0 0-5.25-5.25A5.256 5.256 0 0 0 52 15.5v1c0 1.444.586 2.753 1.532 3.703a7.77 7.77 0 0 0-3.931 5.547h-5.726a3.754 3.754 0 0 0-3.535 5H25.66a3.754 3.754 0 0 0-3.535-5h-5.726a7.77 7.77 0 0 0-3.931-5.547A5.234 5.234 0 0 0 14 16.5v-1a5.256 5.256 0 0 0-5.25-5.25A5.256 5.256 0 0 0 3.5 15.5v1c0 1.443.586 2.752 1.532 3.703A7.756 7.756 0 0 0 1 27v14.02a7.112 7.112 0 0 0 7.104 7.105H18v11.938c0 .507.098.991.273 1.437h-4.94a1.25 1.25 0 0 0 0 2.5h44.709a1.25 1.25 0 0 0 0-2.5H47.727c.175-.446.273-.93.273-1.438v-1.437a1.25 1.25 0 0 0-2.5 0v1.438a1.44 1.44 0 0 1-1.438 1.437 1.44 1.44 0 0 1-1.437-1.438v-15.78a3.535 3.535 0 0 1 3.531-3.532H62.5v.27a4.61 4.61 0 0 1-4.604 4.605H46.75c-.69 0-1.25.56-1.25 1.25v2a1.25 1.25 0 0 0 2.5 0v-.75h9.896A7.112 7.112 0 0 0 65 41.021V27a7.756 7.756 0 0 0-4.032-6.798z"/><path fill="none" stroke="#fff" stroke-miterlimit="50" stroke-width=".5" d="M62.49 38.25H51.995v-4.625c0-.145-.024-.284-.07-.413a7.864 7.864 0 0 0 6.169-4.122 1.25 1.25 0 0 0-2.203-1.18 5.37 5.37 0 0 1-4.74 2.84h-7.277a1.251 1.251 0 0 1 0-2.5h6.872c.69 0 1.25-.56 1.25-1.25a5.255 5.255 0 0 1 5.247-5.25A5.255 5.255 0 0 1 62.49 27zM49.5 33.625v4.625h-2.423c.427-.736.673-1.59.673-2.5 0-.91-.246-1.764-.673-2.5h2.48a1.247 1.247 0 0 0-.057.375zm-6.75 4.625h-19.5a2.503 2.503 0 0 1-2.5-2.5c0-1.379 1.121-2.5 2.5-2.5h19.5c1.379 0 2.5 1.121 2.5 2.5s-1.121 2.5-2.5 2.5zM40.398 61.5H36.75V40.75h4.521a5.998 5.998 0 0 0-1.146 3.531v15.782c0 .507.098.991.273 1.437zm-6.148 0h-2.5V40.75h2.5zm-5 0h-3.648c.176-.446.273-.93.273-1.438v-15.78a5.997 5.997 0 0 0-1.146-3.532h4.521zm-5.875-1.438a1.44 1.44 0 0 1-1.438 1.438 1.44 1.44 0 0 1-1.437-1.438V46.876c0-.69-.56-1.25-1.25-1.25H8.104A4.61 4.61 0 0 1 3.5 41.021v-.271h16.344a3.535 3.535 0 0 1 3.531 3.531zM18.923 38.25H16.5v-4.625c0-.13-.02-.257-.057-.375h2.48a4.968 4.968 0 0 0-.673 2.5c0 .91.246 1.764.673 2.5zM3.5 27a5.256 5.256 0 0 1 5.25-5.25A5.256 5.256 0 0 1 14 27c0 .69.56 1.25 1.25 1.25h6.875c.69 0 1.25.56 1.25 1.25s-.56 1.25-1.25 1.25h-7.28a5.373 5.373 0 0 1-4.743-2.84 1.25 1.25 0 1 0-2.204 1.18 7.868 7.868 0 0 0 6.172 4.122c-.045.13-.07.268-.07.413v4.625H3.5zM6 15.5a2.753 2.753 0 0 1 2.75-2.75 2.753 2.753 0 0 1 2.75 2.75v1a2.753 2.753 0 0 1-2.75 2.75A2.753 2.753 0 0 1 6 16.5zm48.5 0a2.753 2.753 0 0 1 2.75-2.75A2.753 2.753 0 0 1 60 15.5v1a2.753 2.753 0 0 1-2.75 2.75 2.753 2.753 0 0 1-2.75-2.75zm6.468 4.703A5.234 5.234 0 0 0 62.5 16.5v-1a5.256 5.256 0 0 0-5.25-5.25A5.256 5.256 0 0 0 52 15.5v1c0 1.444.586 2.753 1.532 3.703a7.77 7.77 0 0 0-3.931 5.547h-5.726a3.754 3.754 0 0 0-3.535 5H25.66a3.754 3.754 0 0 0-3.535-5h-5.726a7.77 7.77 0 0 0-3.931-5.547A5.234 5.234 0 0 0 14 16.5v-1a5.256 5.256 0 0 0-5.25-5.25A5.256 5.256 0 0 0 3.5 15.5v1c0 1.443.586 2.752 1.532 3.703A7.756 7.756 0 0 0 1 27v14.02a7.112 7.112 0 0 0 7.104 7.105H18v11.938c0 .507.098.991.273 1.437h-4.94a1.25 1.25 0 0 0 0 2.5h44.709a1.25 1.25 0 0 0 0-2.5H47.727c.175-.446.273-.93.273-1.438v-1.437a1.25 1.25 0 0 0-2.5 0v1.438a1.44 1.44 0 0 1-1.438 1.437 1.44 1.44 0 0 1-1.437-1.438v-15.78a3.535 3.535 0 0 1 3.531-3.532H62.5v.27a4.61 4.61 0 0 1-4.604 4.605H46.75c-.69 0-1.25.56-1.25 1.25v2a1.25 1.25 0 0 0 2.5 0v-.75h9.896A7.112 7.112 0 0 0 65 41.021V27a7.756 7.756 0 0 0-4.032-6.798z"/></g><g><path fill="#32aa58" d="M43.25 16c0 .69-.56 1.25-1.25 1.25h-4.875c-.332 0-.65.132-.884.366L33 20.857l-3.241-3.241a1.25 1.25 0 0 0-.884-.366H24c-.69 0-1.25-.56-1.25-1.25V3.75c0-.69.56-1.25 1.25-1.25h18c.69 0 1.25.56 1.25 1.25zM42 0H24a3.754 3.754 0 0 0-3.75 3.75V16A3.754 3.754 0 0 0 24 19.75h4.357l3.759 3.759a1.247 1.247 0 0 0 1.768 0l3.759-3.759H42A3.754 3.754 0 0 0 45.75 16V3.75A3.754 3.754 0 0 0 42 0z"/></g><g><path fill="#32aa58" d="M28.014 8.516a1.254 1.254 0 0 0-.884-.366 1.254 1.254 0 0 0-1.25 1.25c0 .329.134.651.366.884.233.232.555.366.884.366.329 0 .651-.134.884-.366a1.26 1.26 0 0 0 .366-.884 1.26 1.26 0 0 0-.366-.884z"/></g><g><path fill="#32aa58" d="M33.884 8.516A1.26 1.26 0 0 0 33 8.15a1.26 1.26 0 0 0-.884.366 1.26 1.26 0 0 0-.366.884c0 .329.134.651.366.884.233.232.555.366.884.366.329 0 .651-.134.884-.366a1.26 1.26 0 0 0 .366-.884 1.26 1.26 0 0 0-.366-.884z"/></g><g><path fill="#32aa58" d="M39.764 8.516a1.254 1.254 0 0 0-.884-.366 1.254 1.254 0 0 0-1.25 1.25c0 .329.134.651.366.884.233.232.555.366.884.366.329 0 .651-.134.884-.366a1.26 1.26 0 0 0 .366-.884 1.26 1.26 0 0 0-.366-.884z"/></g></g></g></svg>