<svg xmlns="http://www.w3.org/2000/svg" width="66" height="65" viewBox="0 0 66 65"><g><g><g><path fill="#32aa58" d="M23.184 41.355a1.258 1.258 0 0 0-.884-.365c-.329 0-.651.133-.884.365a1.264 1.264 0 0 0-.366.884c0 .33.134.651.366.883.233.234.555.367.884.367a1.254 1.254 0 0 0 1.25-1.25c0-.328-.134-.65-.366-.884z"/></g><g><path fill="#333" d="M59.698 45.295H46.84a1.25 1.25 0 0 0 0 2.5h9.928a2.806 2.806 0 0 1 2.803 2.802 2.806 2.806 0 0 1-2.803 2.803h-9.928a1.25 1.25 0 0 0 0 2.5h6.778a2.806 2.806 0 0 1 2.802 2.802 2.806 2.806 0 0 1-2.802 2.802H31.777a16.65 16.65 0 0 1-6.103-1.154l-2.123-.832V47.254a1.25 1.25 0 0 0-2.5 0V59.94c0 .862-.701 1.564-1.564 1.564H3.5V31.585h15.987c.863 0 1.564.702 1.564 1.564v4.245a1.25 1.25 0 0 0 2.5 0v-4.23l3.85-2.096a14.24 14.24 0 0 0 6.587-7.668l3.042-8.409 1.058.322a5.887 5.887 0 0 1 3.55 2.962c.74 1.439.864 3.076.348 4.61l-2.375 7.051a1.25 1.25 0 0 0 1.184 1.649h15.65a2.806 2.806 0 0 1 2.802 2.802 2.806 2.806 0 0 1-2.802 2.803h-9.604a1.25 1.25 0 0 0 0 2.5h12.857a2.806 2.806 0 0 1 2.802 2.802 2.805 2.805 0 0 1-2.802 2.803zM65 42.493a5.31 5.31 0 0 0-4.14-5.173 5.27 5.27 0 0 0 .887-2.932 5.308 5.308 0 0 0-5.302-5.303h-13.91l1.82-5.402a8.367 8.367 0 0 0-.494-6.553 8.367 8.367 0 0 0-5.046-4.209l-2.193-.667a1.25 1.25 0 0 0-1.54.771l-3.445 9.524a11.743 11.743 0 0 1-5.432 6.324l-3.442 1.874a4.06 4.06 0 0 0-3.276-1.662H2.25c-.69 0-1.25.56-1.25 1.25v32.42c0 .69.56 1.25 1.25 1.25h17.237a4.065 4.065 0 0 0 3.51-2.019l1.764.692a19.141 19.141 0 0 0 7.016 1.326H53.62a5.308 5.308 0 0 0 5.302-5.302 5.272 5.272 0 0 0-.9-2.953 5.31 5.31 0 0 0 4.05-5.152 5.271 5.271 0 0 0-.935-3.002A5.31 5.31 0 0 0 65 42.493z"/><path fill="none" stroke="#fff" stroke-miterlimit="50" stroke-width=".4" d="M59.698 45.295H46.84a1.25 1.25 0 0 0 0 2.5h9.928a2.806 2.806 0 0 1 2.803 2.802 2.806 2.806 0 0 1-2.803 2.803h-9.928a1.25 1.25 0 0 0 0 2.5h6.778a2.806 2.806 0 0 1 2.802 2.802 2.806 2.806 0 0 1-2.802 2.802H31.777a16.65 16.65 0 0 1-6.103-1.154l-2.123-.832V47.254a1.25 1.25 0 0 0-2.5 0V59.94c0 .862-.701 1.564-1.564 1.564H3.5V31.585h15.987c.863 0 1.564.702 1.564 1.564v4.245a1.25 1.25 0 0 0 2.5 0v-4.23l3.85-2.096a14.24 14.24 0 0 0 6.587-7.668l3.042-8.409 1.058.322a5.887 5.887 0 0 1 3.55 2.962c.74 1.439.864 3.076.348 4.61l-2.375 7.051a1.25 1.25 0 0 0 1.184 1.649h15.65a2.806 2.806 0 0 1 2.802 2.802 2.806 2.806 0 0 1-2.802 2.803h-9.604a1.25 1.25 0 0 0 0 2.5h12.857a2.806 2.806 0 0 1 2.802 2.802 2.805 2.805 0 0 1-2.802 2.803zM65 42.493a5.31 5.31 0 0 0-4.14-5.173 5.27 5.27 0 0 0 .887-2.932 5.308 5.308 0 0 0-5.302-5.303h-13.91l1.82-5.402a8.367 8.367 0 0 0-.494-6.553 8.367 8.367 0 0 0-5.046-4.209l-2.193-.667a1.25 1.25 0 0 0-1.54.771l-3.445 9.524a11.743 11.743 0 0 1-5.432 6.324l-3.442 1.874a4.06 4.06 0 0 0-3.276-1.662H2.25c-.69 0-1.25.56-1.25 1.25v32.42c0 .69.56 1.25 1.25 1.25h17.237a4.065 4.065 0 0 0 3.51-2.019l1.764.692a19.141 19.141 0 0 0 7.016 1.326H53.62a5.308 5.308 0 0 0 5.302-5.302 5.272 5.272 0 0 0-.9-2.953 5.31 5.31 0 0 0 4.05-5.152 5.271 5.271 0 0 0-.935-3.002A5.31 5.31 0 0 0 65 42.493z"/></g><g><path fill="#32aa58" d="M14.651 56.443a1.003 1.003 0 0 1 0-2.003 1.002 1.002 0 0 1 0 2.003zm0-4.503a3.505 3.505 0 0 0-3.501 3.501c0 1.93 1.57 3.502 3.501 3.502 1.931 0 3.502-1.571 3.502-3.502 0-1.93-1.571-3.501-3.502-3.501z"/></g><g><path fill="#32aa58" d="M39.234.366A1.26 1.26 0 0 0 38.35 0c-.329 0-.651.134-.884.366a1.26 1.26 0 0 0-.366.884c0 .329.134.651.366.884.233.232.555.366.884.366.329 0 .651-.134.884-.366.232-.233.366-.555.366-.884 0-.329-.134-.651-.366-.884z"/></g><g><path fill="#32aa58" d="M38.35 4.67c-.69 0-1.25.56-1.25 1.25v3.042a1.25 1.25 0 0 0 2.5 0V5.92c0-.69-.56-1.25-1.25-1.25z"/></g><g><path fill="#32aa58" d="M54.758 16.41H47.05a1.25 1.25 0 1 0 0 2.5h7.708a1.25 1.25 0 0 0 0-2.5z"/></g><g><path fill="#32aa58" d="M29.648 16.4H21.94a1.25 1.25 0 0 0 0 2.5h7.708a1.25 1.25 0 0 0 0-2.5z"/></g><g><path fill="#32aa58" d="M32.173 9.705l-3.639-3.639a1.25 1.25 0 0 0-1.768 1.768l3.64 3.64a1.247 1.247 0 0 0 1.767 0 1.25 1.25 0 0 0 0-1.769z"/></g><g><path fill="#32aa58" d="M49.943 6.066a1.25 1.25 0 0 0-1.768 0l-3.639 3.64a1.25 1.25 0 0 0 1.768 1.767l3.64-3.64a1.25 1.25 0 0 0 0-1.767z"/></g></g></g></svg>