<svg xmlns="http://www.w3.org/2000/svg" width="73" height="72" viewBox="0 0 73 72"><g><g><g><path fill="#32aa58" d="M37.447 68.636a1.397 1.397 0 0 0-.98-.406c-.365 0-.723.148-.98.406a1.397 1.397 0 0 0-.407.98c0 .365.148.723.406.981s.616.406.98.406c.365 0 .723-.148.981-.406s.406-.616.406-.98c0-.365-.148-.723-.406-.98z"/></g><g><path fill="#333" d="M66.453 62.679v-6.162a1.387 1.387 0 0 0-2.773 0v6.162h-4.184v-.704c0-3.036-1.046-5.858-2.835-8.085L59.539 47l4.406 1.052a6.858 6.858 0 0 1 5.282 6.692v7.935zM52.987 45.485a1.387 1.387 0 0 0 .01-.19v-1.713a9.096 9.096 0 0 0 2.087.244c.721 0 1.422-.087 2.096-.246v1.764l.003.075-2.112 5.07zm-3.394 3.943l-4.386-1.048c.33-.136.67-.248 1.02-.332l4.386-1.05 1.356 3.248a13.036 13.036 0 0 0-2.376-.818zM42.73 44.51a12.28 12.28 0 0 0 4.642-4.924 9.217 9.217 0 0 0 2.85 2.83v1.815l-4.642 1.111a9.639 9.639 0 0 0-2.85 1.19V44.51zm-6.212-1.06c-5.202 0-9.435-4.23-9.435-9.43v-3.207h3.904c3.542 0 6.898-1.4 9.378-3.875l5.58 3.277v4.13c-.173 5.05-4.333 9.105-9.427 9.105zm3.439 5.14l-3.463 7.875-3.468-7.89v-2.86c1.105.33 2.276.508 3.487.508 1.195 0 2.351-.173 3.444-.495zm-12.545-3.24l-4.636-1.112V42.42a9.212 9.212 0 0 0 2.862-2.857 12.284 12.284 0 0 0 4.604 4.93v2.04a9.61 9.61 0 0 0-2.83-1.182zm-4.043 4.08c-.819.196-1.601.47-2.344.808l1.35-3.244 4.397 1.057c.34.082.673.19.995.322zm-5.458 1.057l-2.106-5.044c.002-.033.004-.067.004-.1V43.58c.675.16 1.378.246 2.101.246.72 0 1.42-.086 2.093-.244v1.674a1.343 1.343 0 0 0-.002.078c0 .044.004.087.008.13zm-4.437 11.48v.71H9.32v-6.16a1.387 1.387 0 0 0-2.773 0v6.16H3.773v-7.934a6.858 6.858 0 0 1 5.282-6.692l4.396-1.05 2.868 6.872a12.873 12.873 0 0 0-2.844 8.095zM11.532 34.67v-1.91H15.5c3.055 0 6.063-.703 8.792-2.045v3.955c0 3.514-2.862 6.373-6.38 6.373-3.517 0-6.379-2.859-6.379-6.373zm0-5.164a6.386 6.386 0 0 1 6.38-6.379 6.39 6.39 0 0 1 6.122 4.584 17.135 17.135 0 0 1-8.535 2.278h-3.967zm15.552-2.683c0-5.2 4.23-9.43 9.43-9.43 5.2 0 9.43 4.23 9.43 9.43v.181l-5.147-3.024a1.387 1.387 0 0 0-1.765.305 10.472 10.472 0 0 1-8.046 3.755h-3.902zm21.625 7.625c.005-.142.009-3.729.009-3.729a19.908 19.908 0 0 0 8.783 2.043h3.967v1.912a6.386 6.386 0 0 1-6.38 6.379 6.386 6.386 0 0 1-6.379-6.379zm6.38-11.32a6.386 6.386 0 0 1 6.379 6.378v.483H57.5c-2.996 0-5.94-.787-8.535-2.278a6.391 6.391 0 0 1 6.123-4.584zm9.5 22.226l-4.625-1.105v-1.835a9.152 9.152 0 0 0 4.277-7.74v-5.168c0-5.047-4.105-9.152-9.152-9.152a9.131 9.131 0 0 0-6.848 3.089c-1.47-5.09-6.17-8.823-11.727-8.823-5.565 0-10.272 3.745-11.734 8.847a9.131 9.131 0 0 0-6.868-3.113c-5.047 0-9.153 4.106-9.153 9.152v5.168a9.152 9.152 0 0 0 4.278 7.74v1.835L8.41 45.354A9.622 9.622 0 0 0 1 54.744v9.321c0 .766.621 1.387 1.387 1.387h11.088v4.16c0 .766.621 1.387 1.387 1.387h15.213a1.387 1.387 0 0 0 0-2.774h-6.19v-6.103a1.387 1.387 0 0 0-2.774 0v6.103h-4.862V61.97c0-4.703 3.194-8.753 7.767-9.849l6.82-1.634 4.39 9.984a1.387 1.387 0 0 0 2.539 0l4.383-9.97 6.8 1.625a10.095 10.095 0 0 1 7.775 9.85v1.548a1.382 1.382 0 0 0 0 1.084v3.618h-4.834v-6.103a1.387 1.387 0 0 0-2.773 0v6.103h-6.792a1.387 1.387 0 0 0 0 2.774H58.11c.765 0 1.386-.621 1.386-1.387v-4.16h11.117c.766 0 1.387-.62 1.387-1.387v-9.321a9.622 9.622 0 0 0-7.41-9.39z"/><path fill="none" stroke="#fff" stroke-miterlimit="50" stroke-width=".7" d="M66.453 62.679v-6.162a1.387 1.387 0 0 0-2.773 0v6.162h-4.184v-.704c0-3.036-1.046-5.858-2.835-8.085L59.539 47l4.406 1.052a6.858 6.858 0 0 1 5.282 6.692v7.935zM52.987 45.485a1.387 1.387 0 0 0 .01-.19v-1.713a9.096 9.096 0 0 0 2.087.244c.721 0 1.422-.087 2.096-.246v1.764l.003.075-2.112 5.07zm-3.394 3.943l-4.386-1.048c.33-.136.67-.248 1.02-.332l4.386-1.05 1.356 3.248a13.036 13.036 0 0 0-2.376-.818zM42.73 44.51a12.28 12.28 0 0 0 4.642-4.924 9.217 9.217 0 0 0 2.85 2.83v1.815l-4.642 1.111a9.639 9.639 0 0 0-2.85 1.19V44.51zm-6.212-1.06c-5.202 0-9.435-4.23-9.435-9.43v-3.207h3.904c3.542 0 6.898-1.4 9.378-3.875l5.58 3.277v4.13c-.173 5.05-4.333 9.105-9.427 9.105zm3.439 5.14l-3.463 7.875-3.468-7.89v-2.86c1.105.33 2.276.508 3.487.508 1.195 0 2.351-.173 3.444-.495zm-12.545-3.24l-4.636-1.112V42.42a9.212 9.212 0 0 0 2.862-2.857 12.284 12.284 0 0 0 4.604 4.93v2.04a9.61 9.61 0 0 0-2.83-1.182zm-4.043 4.08c-.819.196-1.601.47-2.344.808l1.35-3.244 4.397 1.057c.34.082.673.19.995.322zm-5.458 1.057l-2.106-5.044c.002-.033.004-.067.004-.1V43.58c.675.16 1.378.246 2.101.246.72 0 1.42-.086 2.093-.244v1.674a1.343 1.343 0 0 0-.002.078c0 .044.004.087.008.13zm-4.437 11.48v.71H9.32v-6.16a1.387 1.387 0 0 0-2.773 0v6.16H3.773v-7.934a6.858 6.858 0 0 1 5.282-6.692l4.396-1.05 2.868 6.872a12.873 12.873 0 0 0-2.844 8.095zM11.532 34.67v-1.91H15.5c3.055 0 6.063-.703 8.792-2.045v3.955c0 3.514-2.862 6.373-6.38 6.373-3.517 0-6.379-2.859-6.379-6.373zm0-5.164a6.386 6.386 0 0 1 6.38-6.379 6.39 6.39 0 0 1 6.122 4.584 17.135 17.135 0 0 1-8.535 2.278h-3.967zm15.552-2.683c0-5.2 4.23-9.43 9.43-9.43 5.2 0 9.43 4.23 9.43 9.43v.181l-5.147-3.024a1.387 1.387 0 0 0-1.765.305 10.472 10.472 0 0 1-8.046 3.755h-3.902zm21.625 7.625c.005-.142.009-3.729.009-3.729a19.908 19.908 0 0 0 8.783 2.043h3.967v1.912a6.386 6.386 0 0 1-6.38 6.379 6.386 6.386 0 0 1-6.379-6.379zm6.38-11.32a6.386 6.386 0 0 1 6.379 6.378v.483H57.5c-2.996 0-5.94-.787-8.535-2.278a6.391 6.391 0 0 1 6.123-4.584zm9.5 22.226l-4.625-1.105v-1.835a9.152 9.152 0 0 0 4.277-7.74v-5.168c0-5.047-4.105-9.152-9.152-9.152a9.131 9.131 0 0 0-6.848 3.089c-1.47-5.09-6.17-8.823-11.727-8.823h0c-5.565 0-10.272 3.745-11.734 8.847a9.131 9.131 0 0 0-6.868-3.113c-5.047 0-9.153 4.106-9.153 9.152v5.168a9.152 9.152 0 0 0 4.278 7.74v1.835L8.41 45.354A9.622 9.622 0 0 0 1 54.744v9.321c0 .766.621 1.387 1.387 1.387h11.088v4.16c0 .766.621 1.387 1.387 1.387h15.213a1.387 1.387 0 0 0 0-2.774h-6.19v-6.103a1.387 1.387 0 0 0-2.774 0v6.103h-4.862V61.97c0-4.703 3.194-8.753 7.767-9.849l6.82-1.634 4.39 9.984c.22.503.718.828 1.268.828h0c.55 0 1.049-.325 1.27-.828l4.384-9.97 6.8 1.625a10.095 10.095 0 0 1 7.775 9.85v1.548a1.382 1.382 0 0 0 0 1.084v3.618h-4.834v-6.103a1.387 1.387 0 0 0-2.773 0v6.103h-6.792a1.387 1.387 0 0 0 0 2.774H58.11c.765 0 1.386-.621 1.386-1.387v-4.16h11.117c.766 0 1.387-.62 1.387-1.387v-9.321a9.622 9.622 0 0 0-7.41-9.39z"/></g><g><path fill="#333" d="M32.827 32.476a1.397 1.397 0 0 0-.98-.406c-.365 0-.723.148-.98.406a1.397 1.397 0 0 0-.407.98c0 .365.148.723.406.981s.616.406.98.406c.367 0 .723-.148.981-.406.26-.258.406-.616.406-.98 0-.365-.147-.723-.406-.98z"/></g><g><path fill="#333" d="M42.107 32.476a1.397 1.397 0 0 0-.98-.406c-.365 0-.723.148-.98.406a1.397 1.397 0 0 0-.407.98c0 .365.148.723.406.981s.616.406.98.406c.365 0 .723-.148.981-.406.26-.258.406-.616.406-.98 0-.365-.147-.723-.406-.98z"/></g><g><path fill="#333" d="M39.166 37.146a1.387 1.387 0 0 0-1.961 0c-.41.41-1.078.41-1.488 0a1.387 1.387 0 0 0-1.96 1.961 3.814 3.814 0 0 0 2.704 1.119c.98 0 1.959-.373 2.705-1.119a1.387 1.387 0 0 0 0-1.96z"/><path fill="none" stroke="#fff" stroke-miterlimit="50" stroke-width=".7" d="M39.166 37.146a1.387 1.387 0 0 0-1.961 0c-.41.41-1.078.41-1.488 0a1.387 1.387 0 0 0-1.96 1.961 3.814 3.814 0 0 0 2.704 1.119c.98 0 1.959-.373 2.705-1.119a1.387 1.387 0 0 0 0-1.96z"/></g><g><path fill="#32aa58" d="M58.338 7.49h-.951a1.387 1.387 0 0 0 0 2.773h.95a1.387 1.387 0 0 0 0-2.773z"/></g><g><path fill="#32aa58" d="M65.068 7.49h-.951a1.387 1.387 0 0 0 0 2.773h.95a1.387 1.387 0 0 0 0-2.773z"/></g><g><path fill="#32aa58" d="M61.227 10.38c-.766 0-1.387.62-1.387 1.387v.95a1.387 1.387 0 1 0 2.773 0v-.95c0-.766-.62-1.387-1.386-1.387z"/></g><g><path fill="#32aa58" d="M61.227 3.65c-.766 0-1.387.62-1.387 1.387v.95a1.387 1.387 0 1 0 2.773 0v-.95c0-.766-.62-1.387-1.386-1.387z"/></g><g><path fill="#32aa58" d="M8.808 7.49h-.951a1.387 1.387 0 0 0 0 2.773h.95a1.387 1.387 0 0 0 0-2.773z"/></g><g><path fill="#32aa58" d="M15.538 7.49h-.951a1.387 1.387 0 0 0 0 2.773h.95a1.387 1.387 0 0 0 0-2.773z"/></g><g><path fill="#32aa58" d="M11.697 10.38c-.766 0-1.387.62-1.387 1.387v.95a1.387 1.387 0 1 0 2.773 0v-.95c0-.766-.62-1.387-1.386-1.387z"/></g><g><path fill="#32aa58" d="M11.697 3.65c-.766 0-1.387.62-1.387 1.387v.95a1.387 1.387 0 1 0 2.773 0v-.95c0-.766-.62-1.387-1.386-1.387z"/></g><g><path fill="#32aa58" d="M36.497 5.28c-.766 0-1.387.62-1.387 1.387v3.648a1.387 1.387 0 0 0 2.773 0V6.667c0-.766-.62-1.387-1.386-1.387z"/></g><g><path fill="#32aa58" d="M37.477.406a1.397 1.397 0 0 0-.98-.406c-.365 0-.723.148-.98.406a1.397 1.397 0 0 0-.407.98c0 .365.148.723.406.981s.616.406.98.406c.365 0 .723-.148.981-.406s.406-.616.406-.98c0-.365-.148-.723-.406-.98z"/></g><g><path fill="#32aa58" d="M31.637 5.565l-2.03-2.029a1.387 1.387 0 0 0-1.96 1.961l2.029 2.03a1.382 1.382 0 0 0 1.961 0 1.387 1.387 0 0 0 0-1.962z"/></g><g><path fill="#32aa58" d="M45.355 3.456a1.387 1.387 0 0 0-1.962 0l-2.097 2.097a1.387 1.387 0 0 0 1.961 1.962l2.098-2.098a1.387 1.387 0 0 0 0-1.96z"/></g></g></g></svg>