<svg xmlns="http://www.w3.org/2000/svg" width="181" height="181" viewBox="0 0 181 181"><g><g><g opacity=".5"><path fill="none" stroke="#fff" stroke-miterlimit="50" stroke-width="2" d="M90.5 168c42.802 0 77.5-34.698 77.5-77.5S133.302 13 90.5 13 13 47.698 13 90.5 47.698 168 90.5 168z"/></g><g opacity=".19"><path fill="none" stroke="#fff" stroke-miterlimit="50" stroke-width="1.5" d="M90.5 180c49.43 0 89.5-40.07 89.5-89.5S139.93 1 90.5 1 1 41.07 1 90.5 41.07 180 90.5 180z"/></g><g><g><path fill="#fff" d="M85.27 73.23c-2.37 0-4.3 1.93-4.3 4.3h2.867c0-.79.642-1.433 1.433-1.433s1.433.643 1.433 1.433h2.867c0-2.37-1.93-4.3-4.3-4.3z"/></g><g><path fill="#fff" d="M96.73 73.23c-2.37 0-4.3 1.93-4.3 4.3h2.867c0-.79.642-1.433 1.433-1.433s1.433.643 1.433 1.433h2.867c0-2.37-1.93-4.3-4.3-4.3z"/></g><g><path fill="#fff" d="M91.003 120.53a2.87 2.87 0 0 1-2.869-2.867 2.87 2.87 0 0 1 2.87-2.866 2.87 2.87 0 0 1 2.868 2.866 2.87 2.87 0 0 1-2.869 2.867zm0-8.6a5.74 5.74 0 0 0-5.733 5.733 5.74 5.74 0 0 0 5.733 5.734 5.74 5.74 0 0 0 5.734-5.734 5.74 5.74 0 0 0-5.734-5.733z"/></g><g><path fill="#fff" d="M122.533 129.133h-4.3V110.5c0-3.952-3.215-7.167-7.166-7.167H99.052l5.712-11.422c9.872.456 17.77 8.606 17.77 18.589zm-7.156 0H66.633V110.5c0-2.37 1.93-4.3 4.301-4.3h40.142c2.371 0 4.3 1.93 4.3 4.3zM63.767 110.5v18.633h-4.3V110.5c0-9.983 7.897-18.133 17.769-18.589l5.712 11.422H70.933c-3.951 0-7.166 3.215-7.166 7.167zm35.285-18.633h2.529l-5.733 11.456h-2.529zm-10.371 11.456h-2.529L80.42 91.867h2.529zM86.57 92.701c1.416.378 2.896.599 4.43.599 1.534 0 3.014-.22 4.43-.6L91 101.563zm-9.903-16.605v-5.812c4.474-.388 8.271-2.546 10.167-5.568 2.998 3.972 10.003 6.767 18.49 7.053v4.327c0 3.228-1.087 6.198-2.894 8.596H91.995a1 1 0 0 0-1 1v.866a1 1 0 0 0 1 1h7.56a14.257 14.257 0 0 1-14.467 1.576c-4.958-2.255-8.421-7.244-8.421-13.038zm28.665-7.199c-10.344-.364-17.199-4.593-17.199-8.564a1.433 1.433 0 1 0-2.866 0c0 3.582-3.704 6.55-8.517 7.077.764-7.19 6.863-12.81 14.25-12.81 7.89 0 14.312 6.411 14.332 14.297zm-32.249-2.84c-.222 0-.431.043-.648.066.705-9.631 8.75-17.256 18.56-17.256 9.81 0 17.855 7.625 18.56 17.256-.217-.023-.426-.066-.648-.066h-.976c-1.37-8.117-8.433-14.325-16.936-14.325S75.429 57.94 74.059 66.057zM73.8 76.1h-.717a3.587 3.587 0 0 1-3.583-3.583 3.587 3.587 0 0 1 3.583-3.584h.717zm38.7-3.583a3.587 3.587 0 0 1-3.583 3.583h-.717v-7.167h.717a3.587 3.587 0 0 1 3.583 3.584zm-2.877 7.883c0 2.174-1.624 3.957-3.715 4.241a17.076 17.076 0 0 0 2.027-5.674h.974c.244 0 .477-.046.714-.073zm15.777 48.733V110.5c0-11.855-9.645-21.5-21.5-21.5h-1.56c.51-.449.99-.927 1.444-1.433h1.55c3.951 0 7.166-3.215 7.166-7.167v-2.526a6.446 6.446 0 0 0 2.867-5.357 6.445 6.445 0 0 0-2.884-5.368C112.293 55.457 102.738 46 91 46c-11.738 0-21.292 9.457-21.483 21.149a6.445 6.445 0 0 0-2.884 5.368 6.458 6.458 0 0 0 6.45 6.45h.976A17.17 17.17 0 0 0 79.662 89H78.1c-11.855 0-21.5 9.645-21.5 21.5v18.633H49a1 1 0 0 0-1 1V131a1 1 0 0 0 1 1h84a1 1 0 0 0 1-1v-.867a1 1 0 0 0-1-1z"/><path fill="none" stroke="#32aa58" stroke-miterlimit="50" stroke-width=".7" d="M122.533 129.133h-4.3V110.5c0-3.952-3.215-7.167-7.166-7.167H99.052l5.712-11.422c9.872.456 17.77 8.606 17.77 18.589zm-7.156 0H66.633V110.5c0-2.37 1.93-4.3 4.301-4.3h40.142c2.371 0 4.3 1.93 4.3 4.3zM63.767 110.5v18.633h-4.3V110.5c0-9.983 7.897-18.133 17.769-18.589l5.712 11.422H70.933c-3.951 0-7.166 3.215-7.166 7.167zm35.285-18.633h2.529l-5.733 11.456h-2.529zm-10.371 11.456h-2.529L80.42 91.867h2.529zM86.57 92.701c1.416.378 2.896.599 4.43.599 1.534 0 3.014-.22 4.43-.6L91 101.563zm-9.903-16.605v-5.812c4.474-.388 8.271-2.546 10.167-5.568 2.998 3.972 10.003 6.767 18.49 7.053v4.327c0 3.228-1.087 6.198-2.894 8.596H91.995a1 1 0 0 0-1 1v.866a1 1 0 0 0 1 1h7.56a14.257 14.257 0 0 1-14.467 1.576c-4.958-2.255-8.421-7.244-8.421-13.038zm28.665-7.199c-10.344-.364-17.199-4.593-17.199-8.564a1.433 1.433 0 1 0-2.866 0c0 3.582-3.704 6.55-8.517 7.077.764-7.19 6.863-12.81 14.25-12.81 7.89 0 14.312 6.411 14.332 14.297zm-32.249-2.84c-.222 0-.431.043-.648.066.705-9.631 8.75-17.256 18.56-17.256 9.81 0 17.855 7.625 18.56 17.256-.217-.023-.426-.066-.648-.066h-.976c-1.37-8.117-8.433-14.325-16.936-14.325S75.429 57.94 74.059 66.057zM73.8 76.1h-.717a3.587 3.587 0 0 1-3.583-3.583 3.587 3.587 0 0 1 3.583-3.584h.717zm38.7-3.583a3.587 3.587 0 0 1-3.583 3.583h-.717v-7.167h.717a3.587 3.587 0 0 1 3.583 3.584zm-2.877 7.883c0 2.174-1.624 3.957-3.715 4.241a17.076 17.076 0 0 0 2.027-5.674h.974c.244 0 .477-.046.714-.073zm15.777 48.733V110.5c0-11.855-9.645-21.5-21.5-21.5h-1.56c.51-.449.99-.927 1.444-1.433h1.55c3.951 0 7.166-3.215 7.166-7.167v-2.526a6.446 6.446 0 0 0 2.867-5.357 6.445 6.445 0 0 0-2.884-5.368C112.293 55.457 102.738 46 91 46c-11.738 0-21.292 9.457-21.483 21.149a6.445 6.445 0 0 0-2.884 5.368 6.458 6.458 0 0 0 6.45 6.45h.976A17.17 17.17 0 0 0 79.662 89H78.1c-11.855 0-21.5 9.645-21.5 21.5v18.633H49a1 1 0 0 0-1 1V131a1 1 0 0 0 1 1h84a1 1 0 0 0 1-1v-.867a1 1 0 0 0-1-1z"/></g><g><path fill="#fff" d="M109.63 116.23h2.867v10.033h-2.867z"/></g><g><path fill="#fff" d="M109.63 110.5h2.867v2.867h-2.867z"/></g><g><path fill="#fff" d="M122.53 58.9h2.867v2.867h-2.867z"/></g><g><path fill="#fff" d="M122.53 64.63h2.867v2.867h-2.867z"/></g><g><path fill="#fff" d="M122.53 70.37h2.867v2.867h-2.867z"/></g><g><path fill="#fff" d="M56.6 76.1h2.867v2.867H56.6z"/></g><g><path fill="#fff" d="M56.6 81.83h2.867v2.867H56.6z"/></g><g><path fill="#fff" d="M56.6 87.57h2.867v2.867H56.6z"/></g></g></g></g></svg>