<svg xmlns="http://www.w3.org/2000/svg" width="11" height="20" viewBox="0 0 11 20"><g><g><g><path fill="#c9c9c9" d="M5.787 8.808c-2.46-.639-3.25-1.3-3.25-2.329 0-1.18 1.094-2.004 2.925-2.004 1.928 0 2.643.92 2.708 2.275h2.394c-.076-1.863-1.213-3.575-3.477-4.128V.25h-3.25v2.34C1.735 3.045.045 4.41.045 6.5c0 2.503 2.07 3.75 5.092 4.475 2.708.65 3.25 1.603 3.25 2.61 0 .748-.531 1.94-2.925 1.94-2.232 0-3.11-.997-3.229-2.275H-.15c.13 2.372 1.907 3.705 3.987 4.15v2.35h3.25v-2.33c2.112-.4 3.791-1.624 3.791-3.845 0-3.077-2.632-4.128-5.091-4.767z"/></g><g/></g></g></svg>