<svg xmlns="http://www.w3.org/2000/svg" width="23" height="22" viewBox="0 0 23 22"><g><g><g><path fill="#32aa58" d="M15.24 11.748H.75a.75.75 0 1 1 0-1.498h14.49a.75.75 0 1 1 0 1.498z"/></g><g><path fill="#32aa58" d="M11.24 15.738a.749.749 0 0 1-.53-1.28l3.467-3.464L10.71 7.53a.749.749 0 1 1 1.06-1.06l3.997 3.995a.749.749 0 0 1 0 1.06l-3.997 3.994a.744.744 0 0 1-.53.22z"/></g><g><path fill="#32aa58" d="M11.993 21.989a10.936 10.936 0 0 1-10.23-6.966.749.749 0 1 1 1.394-.547 9.446 9.446 0 0 0 8.836 6.015c5.235 0 9.494-4.256 9.494-9.487 0-5.23-4.26-9.486-9.494-9.486a9.446 9.446 0 0 0-8.836 6.015.749.749 0 1 1-1.395-.547A10.936 10.936 0 0 1 11.993.02c6.061 0 10.993 4.928 10.993 10.984 0 6.057-4.932 10.985-10.993 10.985z"/></g></g></g></svg>