<svg xmlns="http://www.w3.org/2000/svg" width="25" height="20" viewBox="0 0 25 20"><g><g><g><g><path fill="#32aa58" d="M19.83 14.708a.363.363 0 0 1-.256-.107l-4.316-4.224a.403.403 0 0 1-.016-.553.363.363 0 0 1 .53-.017l4.315 4.224c.151.148.159.396.017.553a.367.367 0 0 1-.274.124z"/><path fill="none" stroke="#32aa58" stroke-miterlimit="50" stroke-width=".55" d="M19.83 14.708a.363.363 0 0 1-.256-.107l-4.316-4.224a.403.403 0 0 1-.016-.553.363.363 0 0 1 .53-.017l4.315 4.224c.151.148.159.396.017.553a.367.367 0 0 1-.274.124z"/></g><g><path fill="#32aa58" d="M5.425 14.707c-.1 0-.2-.042-.273-.124a.403.403 0 0 1 .016-.552l4.317-4.225a.364.364 0 0 1 .53.017.403.403 0 0 1-.016.553L5.682 14.6a.363.363 0 0 1-.257.107z"/><path fill="none" stroke="#32aa58" stroke-miterlimit="50" stroke-width=".55" d="M5.425 14.707c-.1 0-.2-.042-.273-.124a.403.403 0 0 1 .016-.552l4.317-4.225a.364.364 0 0 1 .53.017.403.403 0 0 1-.016.553L5.682 14.6a.363.363 0 0 1-.257.107z"/></g></g><g><path fill="#32aa58" d="M22.384 2.163c.62 0 1.125.526 1.125 1.174v13.34c0 .648-.505 1.175-1.125 1.175H2.875c-.62 0-1.125-.527-1.125-1.174V3.337c0-.648.505-1.174 1.125-1.174zm1.875 14.515V3.337c0-1.08-.842-1.957-1.875-1.957H2.875C1.841 1.38 1 2.257 1 3.337v13.34c0 1.08.842 1.957 1.875 1.957h19.509c1.034 0 1.875-.877 1.875-1.956z"/><path fill="none" stroke="#32aa58" stroke-miterlimit="50" stroke-width=".55" d="M22.384 2.163c.62 0 1.125.526 1.125 1.174v13.34c0 .648-.505 1.175-1.125 1.175H2.875c-.62 0-1.125-.527-1.125-1.174V3.337c0-.648.505-1.174 1.125-1.174zm1.875 14.515V3.337c0-1.08-.842-1.957-1.875-1.957H2.875C1.841 1.38 1 2.257 1 3.337v13.34c0 1.08.842 1.957 1.875 1.957h19.509c1.034 0 1.875-.877 1.875-1.956z"/></g><g><path fill="#32aa58" d="M12.626 11.97c-.5 0-.998-.173-1.377-.518l-9.63-8.766a.404.404 0 0 1-.037-.553.366.366 0 0 1 .53-.037l9.63 8.765c.479.436 1.289.436 1.767 0l9.618-8.751a.365.365 0 0 1 .53.037c.135.164.12.41-.036.553l-9.618 8.75c-.38.347-.879.52-1.377.52z"/><path fill="none" stroke="#32aa58" stroke-miterlimit="50" stroke-width=".55" d="M12.626 11.97c-.5 0-.998-.173-1.377-.518l-9.63-8.766a.404.404 0 0 1-.037-.553.366.366 0 0 1 .53-.037l9.63 8.765c.479.436 1.289.436 1.767 0l9.618-8.751a.365.365 0 0 1 .53.037c.135.164.12.41-.036.553l-9.618 8.75c-.38.347-.879.52-1.377.52z"/></g></g></g></svg>