<svg xmlns="http://www.w3.org/2000/svg" width="33" height="33" viewBox="0 0 33 33"><g><g><g><path fill="#e8e8e8" d="M16.505 30.237c-7.572 0-13.732-6.16-13.732-13.732 0-7.572 6.16-13.732 13.732-13.732 7.572 0 13.732 6.16 13.732 13.732 0 7.572-6.16 13.732-13.732 13.732zM16.5 1C7.953 1 1 7.953 1 16.5S7.953 32 16.5 32 32 25.047 32 16.5 25.047 1 16.5 1z"/><path fill="none" stroke="#2d2d2d" stroke-miterlimit="50" stroke-width=".4" d="M16.505 30.237c-7.572 0-13.732-6.16-13.732-13.732 0-7.572 6.16-13.732 13.732-13.732 7.572 0 13.732 6.16 13.732 13.732 0 7.572-6.16 13.732-13.732 13.732zM16.5 1C7.953 1 1 7.953 1 16.5S7.953 32 16.5 32 32 25.047 32 16.5 25.047 1 16.5 1z"/></g><g><g><path fill="#e8e8e8" d="M10.17 13.56h3.005v9.431H10.17z"/></g><g><path fill="#e8e8e8" d="M23.034 14.42c-.631-.72-1.466-1.08-2.504-1.08-.383 0-.73.05-1.043.148a2.328 2.328 0 0 0-.792.414 3.957 3.957 0 0 0-.514.494 4.08 4.08 0 0 0-.355.504v-1.341H14.83l.01.457c.005.304.008 1.243.008 2.817 0 1.573-.006 3.625-.018 6.157h2.996v-5.263c0-.323.033-.58.1-.77.127-.325.32-.596.578-.814.258-.22.578-.329.96-.329.523 0 .907.189 1.152.566.246.378.37.9.37 1.566v5.044h2.995v-5.406c0-1.39-.316-2.444-.947-3.164z"/></g><g><path fill="#e8e8e8" d="M11.693 9.02c-.503 0-.911.154-1.224.462-.313.307-.469.696-.469 1.165 0 .463.152.85.455 1.161.304.311.704.467 1.202.467h.018c.51 0 .921-.156 1.234-.467.313-.31.466-.697.46-1.16-.006-.47-.161-.859-.465-1.166-.303-.308-.707-.462-1.21-.462z"/></g></g></g></g></svg>