<svg xmlns="http://www.w3.org/2000/svg" width="56" height="50" viewBox="0 0 56 50"><g><g><g><path fill="#fff" d="M16.36 18.871l4.181-9.596 1.923.96c-.066.671-3.6 9.617-3.6 9.617zm-10.472.47c1.092.5 1.092.433 5.6 1.355.541.526 1.264.809 2.008.786a2.766 2.766 0 0 0 1.958-.91l34.179 13.917c1.853.757 3.957-.118 4.779-1.988l1.25-2.882c.815-1.867.063-4.063-1.708-4.994L21.157 7.536a2.94 2.94 0 0 0-.608-2.116 2.78 2.78 0 0 0-1.884-1.053c-3.855-3.007-3.64-2.882-4.667-3.4a9.454 9.454 0 0 0-7.522-.26C2.776 2.157.284 5.75.156 9.823c-.13 4.072 2.131 7.825 5.732 9.519z"/></g><g><path fill="#32aa58" d="M23.514 15.002s-.087-6.341 1.92-7.045c2.006-.703 4.288.704 4.288 3.943s4.486-5.317 6.772 1.413c2.287 6.73 4.944-4.372 6.589 1.823 1.645 6.195 4.574-4 6.398 1.53 1.824 5.53-.12 11.835-.12 11.835s-2.858 6.68-6.278 0c-3.42-6.68-6.247 3.432-6.611-2.949-.365-6.38-1.509 2.288-4.13.87-2.62-1.42-2.62-3.328-2.62-3.328s-.76 1.409-2.525.704c-1.763-.704-1.27-1.392-.937-2.295.333-.904 1.493-3.057.333-5.308-1.16-2.25-3.08-1.193-3.08-1.193z"/></g><g><path fill="#32aa58" d="M18.52 23.18s4.663-7.262 4.997-8.045c.335-.783 3.608-1.1 3.608 1.41s-1.668 5.972-1.668 5.972-.332 3.129.668 3.967c1 .838 10.66 2.825 10.66 2.825s5.448.458 5.821-1.01c.374-1.47 1.578 4.382 4.918 3.219 3.341-1.164.25 3.625-.736 4.75-.986 1.127-15.39.662-15.39.662l-12.086-8.17z"/></g><g><path fill="#fff" d="M26.595 8.594c1.287.006 2.328 1.078 2.333 2.403v11.531c0 .453-.126.897-.364 1.278a20.568 20.568 0 0 0-1.969-.663.151.151 0 0 1-.104-.097.158.158 0 0 1 .02-.143c1.755-2.95 2.128-5.766 1.036-7.793-.631-1.212-2.018-1.78-3.285-1.346 0-2.883-.056-3.065.177-3.651a2.326 2.326 0 0 1 2.156-1.519zm8.867 4.323v11.531a2.409 2.409 0 0 1-1.11 2.047c-1.018-.586-2.53-1.297-3.51-1.74-.066-.528 0 1.346 0-11.838 0-1.308 1.016-2.376 2.286-2.402 1.287.005 2.329 1.078 2.334 2.402zm4.2-.481c1.288 0 2.333 1.075 2.333 2.402v11.53c0 1.328-1.045 2.403-2.333 2.403-1.289 0-2.334-1.075-2.334-2.402V14.838c0-1.327 1.045-2.402 2.334-2.402zm6.533 1.92c1.289 0 2.333 1.076 2.333 2.403v11.53c0 1.327-1.044 2.403-2.333 2.403-1.289 0-2.333-1.076-2.333-2.402V16.758c0-1.327 1.044-2.403 2.333-2.403zm-2.24 23.737a1.645 1.645 0 0 0-1.027 1.633v8.252H27.995v-7.964c.684.284 1.41.446 2.147.48.515 0 .933-.43.933-.96s-.418-.96-.933-.96c-4.238-.097-8.904-7.782-10.948-11.624a3.652 3.652 0 0 1 .205-3.747l4.928-7.243a.925.925 0 0 1 .807-.414.93.93 0 0 1 .77.481c1.027 1.922-.177 4.525-.98 5.87a2.107 2.107 0 0 0-.19 1.888c.24.624.76 1.088 1.394 1.243a39.214 39.214 0 0 1 7.047 3.007c2.07.867 3.312 3.06 3.024 5.341a.983.983 0 0 0 .358.897.92.92 0 0 0 .933.13.965.965 0 0 0 .576-.767 6.984 6.984 0 0 0-.43-3.478 3.995 3.995 0 0 0 4.667-.375c.653 1.853 2.457 3.002 4.359 2.777v2.19c-.003 1.643-1.138 3.054-2.707 3.362zM22.46 10.236v.002c-1.034 4.56-1.853 7.726-3.134 9.705l-.067.098zm-.065 5.186l-3.069 4.52a7.822 7.822 0 0 1-.067.102c-.373.558-1.101 1.633-1.101 1.633l-.29.423a5.59 5.59 0 0 0-.317 5.763c2.044 3.775 5.087 8.693 8.577 11.133v8.981c0 1.061.836 1.921 1.867 1.921h14.933c1.031 0 1.867-.86 1.867-1.92V39.88c2.212-.669 3.732-2.757 3.733-5.13v-2.872l1.867-.873V16.76c.005-1.656-.915-3.169-2.365-3.888a4.085 4.085 0 0 0-4.43.517 4.206 4.206 0 0 0-2.782-2.706c-1.3-.383-2.7-.09-3.75.785a4.215 4.215 0 0 0-2.785-2.7 4.071 4.071 0 0 0-3.75.779c-.534-1.518-1.85-2.6-3.405-2.802-1.556-.202-3.092.508-3.977 1.841-.11.53-.578 1.154-.69 1.652-.066.67-.066-.073-.066 5.185z"/></g><g><path fill="#32aa58" d="M22.467 10.07l-.097 1.271-1.086 5.545-1.272 1.999-.945 1.458-.287-.483z"/></g><g><path fill="#32aa58" d="M19.241 7.626c-.13.279-4.91 11.22-4.993 11.43a.929.929 0 0 1-.91.53.94.94 0 0 1-.817-.673c-.159-.452-.41.355 5.012-12.055a.945.945 0 0 1 .523-.507.91.91 0 0 1 .718.027.972.972 0 0 1 .467 1.21z"/></g><g><path fill="#32aa58" d="M16.501 5.1c-.606.567-.27.048-5.6 12.315a3.012 3.012 0 0 0-.242 1.133l-3.099-.615L14 3.16z"/></g><g><path fill="#fff" d="M2.691 6.773C4.34 2.984 8.494 1.08 12.332 2.354L5.864 17.147c-3.478-2.116-4.846-6.59-3.173-10.374z"/></g></g></g></svg>