<svg xmlns="http://www.w3.org/2000/svg" width="14" height="19" viewBox="0 0 14 19"><g><g><g><path fill="#32aa58" d="M3.889 7.125V5.542c0-1.746 1.396-3.167 3.111-3.167 1.715 0 3.111 1.42 3.111 3.167v1.583zm4.284 8.269a.4.4 0 0 1-.097.308.388.388 0 0 1-.29.131H6.224a.388.388 0 0 1-.29-.131.4.4 0 0 1-.098-.308l.246-2.246a1.573 1.573 0 0 1-.639-1.273c0-.873.7-1.583 1.561-1.583.86 0 1.56.71 1.56 1.583 0 .512-.238.978-.638 1.273zm5.438-8.269h-1.167V5.542C12.444 2.486 10.002 0 7 0S1.556 2.486 1.556 5.542v1.583H.389A.392.392 0 0 0 0 7.521v9.896C0 18.29.698 19 1.556 19h10.888c.858 0 1.556-.71 1.556-1.583V7.52a.392.392 0 0 0-.389-.396z"/></g></g></g></svg>