<svg xmlns="http://www.w3.org/2000/svg" width="21" height="12" viewBox="0 0 21 12"><g><g><g><path fill="#32aa58" d="M4.725 10.305L3.374 1.703h14.49l1.352 8.602zm-2.972-.01l.67-4.255.668 4.255zm19.196.708L19.336.739a.814.814 0 0 0-.795-.699H2.418a.814.814 0 0 0-.795.699L.01 11.003a.851.851 0 0 0 .182.672.796.796 0 0 0 .614.293h19.347c.236 0 .46-.107.614-.293a.85.85 0 0 0 .182-.672z"/></g><g><path fill="#32aa58" d="M16.12 5.17H6.446a.82.82 0 0 0-.806.832c0 .46.36.832.806.832h9.674a.82.82 0 0 0 .806-.832.82.82 0 0 0-.806-.832z"/></g></g></g></svg>