<svg xmlns="http://www.w3.org/2000/svg" width="20" height="20" viewBox="0 0 20 20"><g><g><path fill="#fff" d="M2.074 8.675a6.605 6.605 0 0 1 6.599-6.597 6.605 6.605 0 0 1 6.598 6.597c0 3.636-2.958 6.601-6.598 6.601-3.637 0-6.6-2.961-6.6-6.601zm16.77 9.407l-4.375-4.374a7.643 7.643 0 0 0 1.884-5.033C16.353 4.44 12.908 1 8.677 1 4.44 1 1 4.444 1 8.675c0 4.23 3.445 7.675 7.677 7.675 1.924 0 3.684-.71 5.034-1.884l4.375 4.374c.104.104.243.16.38.16a.54.54 0 0 0 .38-.918z"/><path fill="none" stroke="#fff" stroke-miterlimit="50" stroke-width=".8" d="M2.074 8.675a6.605 6.605 0 0 1 6.599-6.597 6.605 6.605 0 0 1 6.598 6.597c0 3.636-2.958 6.601-6.598 6.601-3.637 0-6.6-2.961-6.6-6.601zm16.77 9.407l-4.375-4.374a7.643 7.643 0 0 0 1.884-5.033C16.353 4.44 12.908 1 8.677 1 4.44 1 1 4.444 1 8.675c0 4.23 3.445 7.675 7.677 7.675 1.924 0 3.684-.71 5.034-1.884l4.375 4.374c.104.104.243.16.38.16a.54.54 0 0 0 .38-.918z"/></g></g></svg>