<svg xmlns="http://www.w3.org/2000/svg" width="11" height="11" viewBox="0 0 11 11"><g><g><path fill="#656565" d="M8.738 11.08V7.051c0-1.049-.373-1.574-1.113-1.574-.586 0-.97.293-1.158.88-.06.092-.092.278-.092.555v4.166H4.107V6.172c0-1.11-.017-1.881-.046-2.313h1.945l.138.97c.51-.772 1.25-1.157 2.269-1.157.773 0 1.397.27 1.875.81.48.54.719 1.32.719 2.34v4.257zM1.653 2.931C.85 2.932.45 2.562.45 1.822c0-.31.114-.573.347-.788.23-.216.515-.324.856-.324.801 0 1.203.372 1.203 1.112 0 .74-.4 1.11-1.203 1.11zM.542 11.08V3.86h2.222v7.22z"/></g></g></svg>