<svg xmlns="http://www.w3.org/2000/svg" width="13" height="13" viewBox="0 0 13 13"><g><g><path fill="#656565" d="M11.86 4.014c0-.126-.002-.25-.008-.375a5.678 5.678 0 0 0 1.378-1.481 5.292 5.292 0 0 1-1.586.434 2.835 2.835 0 0 0 1.215-1.587 5.304 5.304 0 0 1-1.754.677A2.748 2.748 0 0 0 9.09.73C7.564.705 6.328 1.994 6.328 3.61c0 .23.024.452.072.667C4.103 4.128 2.068 2.933.706 1.13a3.058 3.058 0 0 0-.373 1.478c0 1.022.487 1.931 1.228 2.468A2.643 2.643 0 0 1 .31 4.693v.037c0 1.43.952 2.628 2.216 2.907a2.616 2.616 0 0 1-1.247.042c.351 1.172 1.372 2.028 2.58 2.056A5.33 5.33 0 0 1-.23 10.942a7.45 7.45 0 0 0 4.234 1.327c5.079.001 7.856-4.42 7.856-8.255z"/></g></g></svg>