<svg xmlns="http://www.w3.org/2000/svg" width="20" height="17" viewBox="0 0 20 17"><g><g><path fill="#c9c9c9" d="M20 2.013a8.256 8.256 0 0 1-2.362.677A4.237 4.237 0 0 0 19.44.32a7.978 7.978 0 0 1-2.6 1.037A4.027 4.027 0 0 0 13.846 0C11.576 0 9.75 1.928 9.75 4.29c0 .34.027.667.095.979C6.435 5.095 3.419 3.386 1.392.782a4.472 4.472 0 0 0-.56 2.168c0 1.486.73 2.803 1.82 3.565A3.913 3.913 0 0 1 .8 5.987v.047c0 2.084 1.421 3.816 3.285 4.214a3.922 3.922 0 0 1-1.075.142 3.47 3.47 0 0 1-.776-.074c.531 1.7 2.038 2.948 3.831 2.988A8.01 8.01 0 0 1 0 15.075 11.177 11.177 0 0 0 6.29 17c7.545 0 11.67-6.538 11.67-12.206 0-.19-.006-.373-.015-.554A8.398 8.398 0 0 0 20 2.013z"/></g></g></svg>