<svg xmlns="http://www.w3.org/2000/svg" width="21" height="21" viewBox="0 0 21 21"><g><g><g><path fill="#c9c9c9" d="M16.384 6.112a1.701 1.701 0 0 1-1.701-1.697 1.701 1.701 0 0 1 3.403 0c0 .936-.763 1.697-1.702 1.697zM4.758 10.5A5.748 5.748 0 0 1 10.5 4.758a5.748 5.748 0 0 1 5.742 5.742 5.748 5.748 0 0 1-5.742 5.742A5.748 5.748 0 0 1 4.758 10.5zM15.315 0h-9.63A5.69 5.69 0 0 0 0 5.685v9.63A5.69 5.69 0 0 0 5.685 21h9.63A5.69 5.69 0 0 0 21 15.316V5.685A5.69 5.69 0 0 0 15.315 0z"/></g><g><path fill="#c9c9c9" d="M10.5 5.99a4.516 4.516 0 0 0-4.51 4.51 4.516 4.516 0 0 0 4.51 4.512 4.516 4.516 0 0 0 4.512-4.511A4.516 4.516 0 0 0 10.5 5.99z"/></g><g><path fill="#c9c9c9" d="M16.376 3.95a.466.466 0 1 0 0 .932.466.466 0 0 0 0-.932z"/></g></g></g></svg>