<svg xmlns="http://www.w3.org/2000/svg" width="22" height="22" viewBox="0 0 22 22"><g><g><g><path fill="#c9c9c9" d="M7.864 5.5c1.388 0 2.666.488 3.682 1.432l-1.49 1.446c-.586-.573-1.388-.847-2.192-.847-1.903 0-3.425 1.575-3.425 3.464 0 1.89 1.518 3.465 3.425 3.465 1.446 0 2.878-.848 3.11-2.365h-3.11v-1.889h5.186c.057.302.084.603.084.918 0 3.14-2.107 5.375-5.27 5.375v.001a5.492 5.492 0 0 1-5.5-5.5c0-3.04 2.449-5.5 5.5-5.5zm7.062 4.718h1.575V8.64h1.575v1.578h1.56v1.578h-1.56v1.578H16.5v-1.578h-1.575zM11 22c6.072 0 11-4.928 11-11S17.072 0 11 0 0 4.928 0 11s4.928 11 11 11z"/></g></g></g></svg>