<svg xmlns="http://www.w3.org/2000/svg" width="11" height="11" viewBox="0 0 11 11"><g><g><path fill="#656565" d="M7.672 5.447c0 1.178-.983 2.133-2.196 2.133-1.212 0-2.195-.955-2.195-2.133 0-1.177.983-2.132 2.195-2.132 1.213 0 2.196.955 2.196 2.132zm2.035-.824V9.25c0 .24-.196.436-.435.436H1.65a.437.437 0 0 1-.435-.436V4.623H2.22a3.2 3.2 0 0 0-.14.94c0 1.822 1.523 3.299 3.401 3.299 1.88 0 3.403-1.477 3.403-3.3 0-.326-.05-.641-.14-.939zM7.964 1.215h1.235c.27 0 .492.222.492.494v1.184a.495.495 0 0 1-.492.494H7.964a.495.495 0 0 1-.492-.494V1.709c0-.272.22-.494.492-.494zM1.404 0C.63 0 0 .571 0 1.403V9.53c0 .832.631 1.403 1.403 1.403H9.53c.772 0 1.403-.571 1.403-1.403V1.403C10.932.571 10.301 0 9.529 0z"/></g></g></svg>