<svg xmlns="http://www.w3.org/2000/svg" width="21" height="21" viewBox="0 0 21 21"><g><g><path fill="#32aa58" d="M16.956 5.988a1.373 1.373 0 0 1-1.939 0 1.366 1.366 0 0 1 0-1.935 1.373 1.373 0 0 1 1.939 0c.535.534.535 1.4 0 1.935zM8.92 19.015a.714.714 0 0 1-1.006 0l-5.973-5.943a.706.706 0 0 1 0-1.002.714.714 0 0 1 1.006 0l5.973 5.944a.706.706 0 0 1 0 1.001zM20.945 7.85l-.862-5.41A1.817 1.817 0 0 0 18.57.932l-5.424-.86a1.823 1.823 0 0 0-1.573.51L.534 11.594c-.712.709-.712 1.858 0 2.567l6.285 6.27c.711.709 1.863.709 2.574 0L20.434 9.419c.412-.411.602-.995.51-1.569z"/></g></g></svg>