<svg xmlns="http://www.w3.org/2000/svg" width="21" height="14" viewBox="0 0 21 14"><g><g><g><path fill="#32aa58" d="M7.539 11.448a.756.756 0 0 0-1.002-.255.676.676 0 0 0-.269.95l.905 1.485a.762.762 0 0 0 1.002.255.676.676 0 0 0 .269-.95z"/></g><g><path fill="#32aa58" d="M11.089 11.448a.756.756 0 0 0-1.002-.255.676.676 0 0 0-.269.95l.905 1.485a.762.762 0 0 0 1.002.255.676.676 0 0 0 .269-.95z"/></g><g><path fill="#32aa58" d="M14.629 11.448a.756.756 0 0 0-1.002-.255.676.676 0 0 0-.269.95l.905 1.485a.762.762 0 0 0 1.002.255.676.676 0 0 0 .269-.95z"/></g><g><path fill="#32aa58" d="M19.523 7.99c0 .336-.288.609-.642.609h-1.313l-.254-1.623a.722.722 0 0 0-.725-.593H4.401a.722.722 0 0 0-.725.593L3.422 8.6H2.11c-.354 0-.642-.273-.642-.61V2c0-.335.288-.608.642-.608h16.772c.354 0 .642.273.642.609zm-14.616.609l.128-.825h10.92l.128.825zM18.89 0H2.11C.946 0 0 .897 0 2v5.99c0 1.102.946 2 2.11 2h16.78c1.164 0 2.11-.898 2.11-2V2c0-1.103-.946-2-2.11-2z"/></g><g><path fill="#32aa58" d="M16.1 2.16c-.436 0-.79.336-.79.749 0 .412.354.748.79.748.435 0 .79-.336.79-.748 0-.413-.355-.749-.79-.749z"/></g><g><path fill="#32aa58" d="M16.1 4.11c-.436 0-.79.336-.79.749 0 .412.354.748.79.748.435 0 .79-.336.79-.748 0-.413-.355-.749-.79-.749z"/></g></g></g></svg>