<svg xmlns="http://www.w3.org/2000/svg" width="39" height="47" viewBox="0 0 39 47"><g><g><g><path fill="#32aa58" d="M36.447 26.565H32.65v-3.553h3.798zm0 5.453H32.65v-3.543h3.798zm0 5.739H32.65v-3.553h3.798zm0 5.256H32.65V39.47h3.798zm-6.133-16.448h-3.788v-3.553h3.788zm0 5.453h-3.788v-3.543h3.788zm0 5.739h-3.788v-3.553h3.788zm-6.327-11.192H20.19v-3.553h3.798zm0 5.453H20.19v-3.543h3.798zm0 5.739H20.19v-3.553h3.798zm0 5.177H20.19V39.39h3.798zm13.16-22.284H19.415c-.993 0-1.797.529-1.797 1.18v23.977c0 .653.804 1.182 1.797 1.182h6.38v-7.677h5.123v7.677h6.23c.992 0 1.797-.529 1.797-1.182V21.831c0-.652-.805-1.181-1.798-1.181zM15.041 10.546h-4.484V4.214h4.484zm0 9.735h-4.484V13.96h4.484zm0 10.22h-4.484v-6.322h4.484zM3.077 10.546V4.214H7.56v6.332zm0 9.735V13.96H7.56v6.32zm0 10.22v-6.322H7.56v6.322zm0 9.254v-6.321H7.56v6.32zm14.71-35.54h4.484v6.33h-4.485zm0 9.745h4.484v5.005h2.96V2.107C25.231.943 24.281 0 23.11 0H2.163A2.115 2.115 0 0 0 .04 2.107v42.775c0 1.164.95 2.107 2.123 2.107H9.7V33.293h5.838V21.831c0-1.245.923-2.279 2.249-2.682v-5.19z"/></g></g></g></svg>