<svg xmlns="http://www.w3.org/2000/svg" width="46" height="46" viewBox="0 0 46 46"><g><g><g><path fill="#32aa58" d="M31.314 43.26v-4.28c0-.744.603-1.346 1.348-1.346.744 0 1.347.602 1.347 1.346v4.28zm-5.39 0v-4.28a1.346 1.346 0 1 1 2.695 0v4.28zm-.022-19.622c0-.744.604-1.345 1.348-1.345.744 0 1.347.601 1.347 1.345v2.727c0 .744-.603 1.345-1.347 1.345a1.346 1.346 0 0 1-1.348-1.345zm2.714 7.221v2.728a1.347 1.347 0 0 1-2.695 0V30.86c0-.744.603-1.345 1.348-1.345.743 0 1.347.601 1.347 1.345zm-2.704-14.42c0-.742.603-1.343 1.347-1.343s1.348.6 1.348 1.343v2.722c0 .742-.604 1.343-1.348 1.343-.744 0-1.347-.601-1.347-1.343zm5.405 7.2a1.344 1.344 0 1 1 2.685 0v2.726a1.344 1.344 0 0 1-2.685 0zm.009-7.2a1.343 1.343 0 1 1 2.685 0v2.722a1.343 1.343 0 1 1-2.685 0zm2.704 17.148a1.347 1.347 0 0 1-2.695 0V30.86c0-.744.603-1.345 1.347-1.345s1.348.601 1.348 1.345zM10.393 43.26v-4.28a1.346 1.346 0 1 1 2.695 0v4.28zm29.675 0V16.16L19.865 7.87v35.39h-2.732v-31.3l-8.72 4.503a4.532 4.532 0 0 0-2.461 4.041v1.788h5.788a1.346 1.346 0 1 1 0 2.691H5.952v2.32h5.788a1.346 1.346 0 1 1 0 2.69H5.952v2.249h5.788a1.346 1.346 0 1 1 0 2.69H5.952v8.328H1.348a1.347 1.347 0 1 0 0 2.69h43.304a1.347 1.347 0 1 0 0-2.69z"/></g><g><path fill="#32aa58" d="M19.46 4.791a1.348 1.348 0 0 0-1.758.733 1.344 1.344 0 0 0 .734 1.756l1.43.588v-2.91z"/></g><g><path fill="#32aa58" d="M41.465 16.732a1.345 1.345 0 0 0 1.76-.733 1.345 1.345 0 0 0-.735-1.756l-2.42-.993v2.91z"/></g><g><path fill="#32aa58" d="M40.07 11.488l1.395.573a1.348 1.348 0 0 0 1.759-.733 1.345 1.345 0 0 0-.735-1.756L19.46.122a1.345 1.345 0 1 0-1.024 2.489l1.431.587v1.76l20.202 8.29z"/></g></g></g></svg>