<svg xmlns="http://www.w3.org/2000/svg" width="16" height="16" viewBox="0 0 16 16"><g><g><g><path fill="#32aa58" d="M8 14.4A6.407 6.407 0 0 1 1.6 8C1.6 4.47 4.471 1.6 8 1.6c3.529 0 6.4 2.871 6.4 6.4 0 3.529-2.871 6.4-6.4 6.4zM8 0a8 8 0 1 0 0 16A8 8 0 0 0 8 0z"/></g><g><path fill="#32aa58" d="M12.327 4.886a.32.32 0 0 0-.446-.077L8.36 7.29a.794.794 0 0 0-.537-.068L5.304 5.08a.32.32 0 0 0-.45.036l-.208.244a.32.32 0 0 0 .037.451l2.519 2.144-.003.048a.8.8 0 0 0 .694.792v4.542h.213V8.795a.8.8 0 0 0 .686-.894l3.52-2.482a.32.32 0 0 0 .076-.446z"/></g></g></g></svg>