<svg xmlns="http://www.w3.org/2000/svg" width="18" height="15" viewBox="0 0 18 15"><g><g><g><path fill="#32aa58" d="M9.052 14.985c1.028 0 1.862-.823 1.862-1.838 0-1.014-.834-1.837-1.862-1.837s-1.862.823-1.862 1.837c0 1.015.834 1.838 1.862 1.838z"/></g><g><path fill="#32aa58" d="M10.358 11.86a1.803 1.803 0 0 1 0 2.584 1.861 1.861 0 0 1-2.618 0"/></g><g><path fill="#32aa58" d="M14.573 7.775a.909.909 0 0 1-.64-.258 6.93 6.93 0 0 0-4.946-2.038 7.024 7.024 0 0 0-4.945 2.01.922.922 0 0 1-1.28 0 .893.893 0 0 1 0-1.264A8.887 8.887 0 0 1 9.016 3.67c2.357 0 4.568.919 6.255 2.555.349.345.349.919 0 1.263-.204.172-.466.287-.698.287z"/></g><g><path fill="#32aa58" d="M8.99 4.62c-2.356 0-4.567.919-6.255 2.555-.058.057-.087.115-.145.172.03.058.087.115.145.173.35.344.931.344 1.28 0A6.98 6.98 0 0 1 8.961 5.48a6.93 6.93 0 0 1 4.945 2.039.909.909 0 0 0 .64.258.909.909 0 0 0 .64-.258c.059-.058.088-.115.146-.173a.764.764 0 0 0-.146-.172C13.557 5.51 11.346 4.62 8.99 4.62z"/></g><g><path fill="#32aa58" d="M17.076 5.111a.909.909 0 0 1-.64-.258C14.43 2.901 11.811 1.81 8.99 1.81S3.55 2.9 1.542 4.853a.922.922 0 0 1-1.28 0 .893.893 0 0 1 0-1.263C2.589 1.293 5.702.03 8.989.03s6.4 1.263 8.727 3.56c.35.344.35.918 0 1.263a.909.909 0 0 1-.64.258z"/></g><g><path fill="#32aa58" d="M8.994.98c-3.288 0-6.4 1.263-8.728 3.56a.505.505 0 0 0-.116.143c.03.058.087.115.116.144.35.344.931.344 1.28 0 2.008-1.924 4.626-3.014 7.448-3.014 2.821 0 5.44 1.09 7.447 3.043a.909.909 0 0 0 .64.258.909.909 0 0 0 .64-.258.505.505 0 0 0 .116-.144.628.628 0 0 0-.116-.143C15.394 2.243 12.28.98 8.994.98z"/></g><g><path fill="#32aa58" d="M12.333 10.508a.909.909 0 0 1-.64-.258 3.808 3.808 0 0 0-2.706-1.091 3.933 3.933 0 0 0-2.705 1.09.922.922 0 0 1-1.28 0 .893.893 0 0 1 0-1.263A5.603 5.603 0 0 1 8.987 7.35c1.513 0 2.91.574 3.986 1.636.349.345.349.919 0 1.264a.909.909 0 0 1-.64.258z"/></g><g><path fill="#32aa58" d="M8.992 8.35c-1.513 0-2.91.574-3.986 1.636a.628.628 0 0 0-.116.144c.03.057.058.086.116.143.35.345.931.345 1.28 0a3.808 3.808 0 0 1 2.706-1.09c1.018 0 1.978.401 2.705 1.09a.909.909 0 0 0 .64.259.909.909 0 0 0 .64-.259.628.628 0 0 0 .117-.143c-.03-.058-.059-.086-.117-.144A5.603 5.603 0 0 0 8.992 8.35z"/></g></g></g></svg>